 <svg  version="1.0" xmlns="http://www.w3.org/2000/svg"  width="900.000000pt" height="900.000000pt" viewBox="0 0 900.000000 900.000000"  preserveAspectRatio="xMidYMid meet">  <g transform="translate(0.000000,900.000000) scale(0.100000,-0.100000)" fill="#9333ea" stroke="none"> <path d="M5230 8790 c0 -5 9 -10 20 -10 11 0 20 5 20 10 0 6 -9 10 -20 10 -11 0 -20 -4 -20 -10z"/> <path d="M4998 8780 c-54 -4 -106 -11 -115 -15 -10 -4 -62 -11 -115 -15 -100 -9 -134 -22 -144 -53 -9 -27 -2 -29 52 -12 35 11 92 16 201 16 153 0 184 -3 236 -23 20 -8 31 -8 40 1 6 6 46 11 99 11 48 0 88 4 88 9 0 14 -28 21 -86 21 -30 0 -54 4 -54 10 0 9 -61 7 -157 -5 -18 -2 -33 0 -33 6 0 5 16 9 36 9 19 0 44 5 55 10 21 12 26 41 7 39 -7 -1 -57 -5 -110 -9z"/> <path d="M6103 8764 c-7 -3 -13 -12 -13 -20 0 -9 4 -13 9 -10 13 9 164 -15 180 -27 17 -14 50 -33 78 -46 13 -6 62 -50 111 -98 77 -77 94 -102 146 -206 32 -65 63 -120 67 -123 5 -3 9 -21 9 -40 0 -19 5 -34 11 -34 25 0 78 -193 60 -222 -13 -21 -15 -70 -2 -83 4 -6 4 -53 -1 -105 -5 -52 -6 -112 -3 -132 3 -20 1 -40 -5 -43 -14 -8 -60 -108 -60 -129 0 -9 -7 -19 -15 -22 -8 -4 -15 -14 -15 -24 0 -11 -5 -22 -10 -25 -10 -6 -50 -78 -50 -90 0 -16 60 59 75 93 10 22 29 45 42 51 12 6 23 19 23 29 0 10 11 28 23 41 28 25 78 133 91 194 5 22 3 27 -13 27 -26 0 -34 51 -18 120 11 45 10 65 -1 110 -7 30 -17 75 -21 100 -4 25 -15 59 -23 75 -9 17 -21 41 -26 55 -25 66 -29 73 -131 242 -104 171 -179 247 -316 315 -39 20 -176 38 -202 27z m692 -874 c0 -18 -6 -35 -12 -37 -9 -3 -13 8 -13 37 0 29 4 40 13 38 6 -3 12 -20 12 -38z"/> <path d="M5617 8744 c-11 -12 3 -24 29 -24 13 0 33 -9 44 -20 11 -11 29 -20 39 -20 11 0 23 -4 26 -10 3 -5 18 -10 31 -10 31 0 28 24 -4 28 -11 2 -26 10 -32 18 -7 8 -25 14 -40 14 -16 0 -30 7 -34 15 -5 15 -47 21 -59 9z"/> <path d="M5876 8742 c-11 -10 -6 -22 8 -22 7 0 19 -7 26 -15 7 -8 27 -15 46 -15 30 0 85 -18 124 -41 8 -5 22 -12 30 -15 37 -14 49 -22 131 -77 55 -36 76 -54 189 -161 30 -29 63 -55 73 -59 9 -3 17 -13 17 -22 0 -8 7 -15 15 -15 9 0 19 -8 22 -17 4 -10 12 -22 20 -26 7 -4 13 -15 13 -22 0 -8 5 -15 10 -15 21 0 21 28 1 66 -12 21 -21 43 -21 49 0 5 -32 47 -70 93 -64 75 -133 132 -160 132 -5 0 -10 7 -10 15 0 9 -6 12 -15 9 -8 -4 -30 5 -49 19 -33 26 -177 97 -194 97 -5 0 -16 10 -24 23 -14 19 -24 22 -96 24 -44 0 -83 -1 -86 -5z"/> <path d="M5430 8720 c0 -13 7 -20 18 -20 11 0 29 -9 42 -20 13 -11 28 -20 35 -20 7 0 32 -11 56 -25 24 -14 51 -28 59 -32 8 -3 50 -33 92 -65 42 -32 81 -58 87 -58 5 0 14 -6 18 -13 4 -7 33 -32 63 -57 67 -55 90 -78 90 -88 0 -4 13 -19 30 -32 16 -14 29 -31 30 -37 0 -7 5 -13 10 -13 6 0 15 -11 20 -25 5 -14 14 -25 20 -25 15 0 12 16 -5 34 -8 8 -15 22 -15 30 0 9 -7 16 -15 16 -8 0 -15 6 -15 14 0 8 -7 16 -15 20 -8 3 -15 12 -15 21 0 8 -5 15 -10 15 -6 0 -13 7 -17 16 -3 9 -37 49 -75 88 -52 54 -67 76 -63 92 4 19 -9 28 -98 72 -56 28 -112 53 -123 57 -12 3 -29 14 -39 25 -11 12 -31 20 -50 20 -17 0 -40 7 -51 15 -29 22 -64 19 -64 -5z"/> <path d="M5360 8675 c0 -8 9 -15 20 -15 24 0 27 15 4 24 -22 9 -24 8 -24 -9z"/> <path d="M4468 8668 c26 -26 14 -41 -28 -35 -33 4 -40 2 -45 -14 -5 -14 -16 -19 -42 -19 -23 0 -33 -4 -31 -12 7 -19 63 -22 78 -4 7 9 22 16 34 16 12 0 31 7 43 15 12 8 39 19 60 23 l38 8 -47 8 c-27 4 -48 11 -48 17 0 5 -5 9 -12 9 -9 0 -9 -3 0 -12z"/> <path d="M4721 8646 c11 -10 89 -15 89 -6 0 5 -21 10 -47 10 -25 0 -44 -2 -42 -4z"/> <path d="M5390 8621 c0 -10 40 -22 52 -15 18 11 6 24 -22 24 -16 0 -30 -4 -30 -9z"/> <path d="M5130 8611 c1 -18 25 -35 110 -79 101 -52 204 -120 284 -186 72 -60 166 -157 166 -171 0 -7 7 -15 15 -19 8 -3 15 -12 15 -21 0 -20 26 -19 34 2 6 15 34 -32 71 -122 7 -16 20 -47 29 -68 9 -21 16 -50 16 -64 0 -15 10 -62 21 -106 26 -94 41 -86 40 23 0 39 4 70 9 70 6 0 10 9 10 20 0 25 -8 25 -27 3 -12 -16 -13 -11 -11 37 2 43 0 55 -12 55 -11 0 -14 10 -12 38 2 32 0 37 -18 37 -16 0 -20 6 -20 35 0 26 -4 35 -16 35 -13 0 -15 7 -11 35 5 28 3 35 -11 35 -17 0 -52 50 -52 75 0 9 -6 12 -16 8 -13 -5 -15 -2 -10 13 4 13 -5 29 -30 54 -19 19 -42 43 -52 53 -9 9 -22 17 -30 17 -7 0 -15 7 -18 15 -4 8 -12 15 -19 15 -7 0 -15 4 -17 8 -5 13 -95 62 -114 62 -20 0 -73 16 -121 37 -17 7 -37 13 -45 13 -8 0 -18 4 -23 9 -12 12 -135 41 -135 32z"/> <path d="M4248 8599 c-27 -15 -21 -31 10 -27 15 2 27 9 27 17 0 19 -16 23 -37 10z"/> <path d="M4970 8590 c-13 -8 -12 -10 3 -10 10 0 32 -7 48 -16 39 -20 49 -11 18 15 -27 23 -46 26 -69 11z"/> <path d="M4144 8555 c-10 -8 -27 -15 -37 -15 -10 0 -20 -7 -23 -15 -4 -9 -19 -15 -38 -15 -18 0 -41 -7 -52 -15 -10 -8 -27 -15 -37 -15 -11 0 -31 -6 -45 -14 -15 -8 -35 -17 -44 -20 -27 -8 -21 -23 13 -35 43 -15 59 -14 59 4 0 10 11 15 38 15 20 0 47 1 59 1 12 1 24 7 27 15 3 8 12 14 21 14 8 0 15 5 15 10 0 6 -4 10 -10 10 -5 0 -10 5 -10 11 0 6 13 9 30 7 20 -2 36 4 50 20 11 12 30 22 40 22 11 0 20 7 20 15 0 20 -50 20 -76 0z"/> <path d="M4696 8561 c-5 -7 7 -11 36 -11 25 0 53 -7 64 -15 26 -20 80 -19 88 1 4 9 5 18 3 20 -1 2 -43 6 -93 10 -64 5 -93 3 -98 -5z"/> <path d="M5940 8563 c0 -10 232 -235 258 -249 12 -7 29 -11 36 -8 9 3 21 -12 36 -43 12 -26 26 -55 31 -63 9 -15 18 -36 25 -57 5 -19 44 -16 44 2 0 9 -11 26 -25 39 -14 13 -25 30 -25 39 0 9 -6 22 -12 29 -17 18 -48 77 -48 90 0 12 -67 78 -79 78 -5 0 -11 7 -15 15 -3 8 -12 15 -20 15 -7 0 -16 7 -20 15 -3 8 -10 15 -15 15 -6 0 -22 11 -36 24 -46 43 -135 82 -135 59z m280 -228 c0 -8 -4 -15 -10 -15 -5 0 -10 7 -10 15 0 8 5 15 10 15 6 0 10 -7 10 -15z"/> <path d="M4910 8523 c-33 -14 -34 -16 -15 -29 24 -18 30 -18 45 1 7 8 19 15 27 15 18 0 11 24 -8 27 -8 1 -30 -5 -49 -14z"/> <path d="M5630 8530 c0 -5 12 -16 28 -24 15 -8 52 -37 82 -65 30 -28 58 -51 62 -51 4 0 8 -6 8 -14 0 -8 4 -16 9 -18 12 -4 116 -140 155 -202 90 -145 176 -481 163 -642 -5 -75 -24 -177 -41 -229 -31 -94 -38 -117 -33 -122 3 -3 17 20 32 51 14 31 30 58 34 61 5 2 12 26 16 52 4 27 12 56 17 67 6 10 10 87 10 173 -1 145 -15 250 -43 321 -5 13 -9 32 -9 43 0 12 -6 33 -14 47 -7 15 -26 53 -41 85 -15 31 -32 60 -36 63 -5 3 -9 13 -9 24 0 10 -7 20 -15 24 -8 3 -15 10 -15 16 0 35 -196 248 -294 321 -39 29 -66 37 -66 19z"/> <path d="M4978 8491 c-22 -21 -22 -27 -4 -34 18 -7 60 28 51 42 -9 16 -27 12 -47 -8z"/> <path d="M5043 8458 c-28 -13 -30 -28 -5 -28 19 0 42 18 42 32 0 10 -10 9 -37 -4z"/> <path d="M5080 8429 c-7 -11 -10 -22 -8 -23 2 -1 15 -6 30 -11 48 -17 298 -251 298 -279 0 -9 4 -16 9 -16 5 0 12 -8 15 -17 11 -32 35 -67 53 -81 10 -7 18 -25 18 -40 0 -20 4 -26 18 -24 16 3 17 -2 11 -33 -5 -31 -3 -37 13 -41 16 -4 20 -15 21 -57 1 -29 4 -110 7 -181 4 -71 4 -144 0 -163 -5 -29 -9 -33 -27 -27 -20 6 -21 4 -14 -51 3 -32 11 -65 16 -74 7 -13 10 -11 19 12 6 16 11 33 11 38 0 5 4 9 9 9 8 0 23 90 26 160 1 19 5 57 9 83 4 28 3 53 -2 60 -5 7 -12 50 -15 97 -3 49 -12 98 -21 115 -9 17 -16 36 -16 43 0 7 -7 15 -15 18 -8 4 -15 13 -15 21 0 16 -90 133 -102 133 -5 0 -8 10 -8 21 0 25 -37 89 -51 89 -5 0 -9 4 -9 10 0 15 -74 84 -175 162 -5 5 -26 22 -45 38 -42 35 -46 36 -60 9z m480 -1053 c-14 -14 -24 0 -16 21 6 15 8 15 16 3 6 -9 5 -19 0 -24z"/> <path d="M6721 8398 c30 -23 57 -47 61 -52 4 -6 9 -8 12 -5 9 8 -49 69 -80 85 -50 26 -47 14 7 -28z"/> <path d="M3779 8402 c-48 -31 -181 -180 -173 -193 12 -20 40 -7 64 28 34 52 140 153 159 153 6 0 11 7 11 15 0 20 -28 18 -61 -3z"/> <path d="M5996 8412 c-3 -6 -1 -14 5 -17 15 -10 25 3 12 16 -7 7 -13 7 -17 1z"/> <path d="M4825 8400 c3 -5 20 -10 36 -10 18 0 28 4 24 10 -3 6 -20 10 -36 10 -18 0 -28 -4 -24 -10z"/> <path d="M4364 8386 c-4 -10 -18 -16 -35 -16 -16 0 -37 -8 -46 -17 -10 -10 -27 -17 -39 -15 -11 2 -27 -4 -34 -13 -7 -8 -19 -15 -26 -15 -23 0 -16 -27 9 -32 12 -2 103 -1 202 3 181 8 360 -2 379 -21 6 -6 24 -10 41 -10 16 0 39 -7 49 -15 11 -8 29 -15 40 -15 12 0 29 -7 39 -15 11 -7 25 -11 33 -8 8 3 14 -1 14 -10 0 -8 18 -27 40 -42 22 -15 40 -32 40 -36 0 -5 5 -9 10 -9 6 0 22 -12 37 -27 14 -16 31 -27 39 -25 8 2 14 -4 14 -13 0 -8 6 -15 14 -15 33 0 91 -178 82 -253 -2 -23 -8 -79 -12 -124 -4 -50 -12 -87 -20 -94 -8 -6 -11 -16 -7 -22 4 -6 6 -26 5 -44 -2 -27 1 -33 17 -33 28 0 38 24 62 135 21 101 26 216 14 300 -9 65 -34 146 -51 166 -8 8 -14 28 -14 42 0 15 -4 27 -9 27 -5 0 -12 8 -15 18 -3 9 -29 37 -57 61 -48 41 -51 42 -64 25 -13 -18 -14 -18 -15 -1 0 9 5 17 10 17 18 0 10 17 -16 35 -19 12 -29 13 -38 5 -8 -5 -21 -7 -31 -4 -16 6 -15 9 5 24 l23 18 -22 7 c-12 3 -34 18 -48 31 -29 27 -66 40 -83 29 -15 -9 -2 -25 20 -25 10 0 25 -7 34 -15 8 -8 22 -15 30 -15 9 0 16 -7 16 -15 0 -19 -19 -19 -45 -2 -61 41 -213 69 -387 73 -75 1 -150 5 -167 9 -23 5 -33 3 -37 -9z m724 -127 c-2 -6 -8 -10 -13 -10 -5 0 -11 4 -13 10 -2 6 4 11 13 11 9 0 15 -5 13 -11z"/> <path d="M3865 8379 c-4 -6 -5 -13 -2 -16 7 -7 27 6 27 18 0 12 -17 12 -25 -2z"/> <path d="M6020 8370 c0 -5 25 -36 56 -67 31 -32 60 -67 65 -78 11 -25 30 -53 49 -75 8 -9 22 -27 30 -40 8 -12 23 -33 33 -45 9 -13 17 -26 17 -30 0 -3 11 -21 24 -38 13 -18 43 -71 66 -120 23 -48 46 -89 50 -92 4 -2 10 -19 14 -37 5 -24 9 -29 18 -20 9 9 2 36 -31 120 -24 59 -52 116 -62 127 -10 11 -26 29 -36 40 -10 11 -27 38 -38 60 -11 22 -32 56 -47 76 -16 20 -28 39 -28 42 0 4 -21 28 -47 54 -27 26 -64 67 -83 91 -34 41 -50 52 -50 32z"/> <path d="M6830 8311 c0 -6 4 -12 9 -16 6 -3 16 -18 24 -33 69 -127 88 -168 93 -202 4 -22 13 -45 20 -51 8 -6 14 -20 14 -29 0 -29 12 -53 20 -40 10 16 -9 131 -26 155 -8 10 -14 26 -14 34 0 8 -11 29 -25 47 -14 18 -25 40 -25 49 0 8 -7 18 -15 21 -8 4 -15 12 -15 18 0 13 -41 56 -53 56 -4 0 -7 -4 -7 -9z"/> <path d="M6780 8237 c0 -27 13 -36 26 -16 3 6 -1 18 -10 27 -15 15 -16 14 -16 -11z"/> <path d="M5457 8230 c3 -11 9 -20 14 -20 5 0 9 -7 9 -15 0 -8 -7 -15 -15 -15 -8 0 -15 7 -15 15 0 8 -7 15 -15 15 -8 0 -15 7 -15 15 0 15 -12 20 -23 9 -6 -7 65 -84 77 -84 3 0 6 7 6 15 0 8 7 15 15 15 8 0 15 -5 15 -11 0 -7 8 -18 18 -25 15 -13 16 -15 1 -26 -9 -7 -14 -19 -12 -25 6 -18 23 -16 23 2 0 8 5 15 11 15 6 0 9 -14 7 -32 -2 -26 1 -32 13 -30 13 2 15 -4 11 -24 -4 -23 -2 -25 17 -19 21 6 22 4 16 -29 -7 -37 1 -45 24 -23 11 10 12 5 7 -29 -7 -46 1 -62 19 -37 10 14 14 5 24 -53 6 -38 16 -91 21 -119 14 -80 11 -194 -6 -254 -9 -31 -31 -103 -50 -161 -38 -118 -40 -130 -19 -130 8 0 15 5 15 11 0 7 10 33 21 58 54 115 71 187 80 326 8 127 -12 314 -36 345 -7 8 -15 27 -19 43 -3 15 -11 27 -16 27 -6 0 -10 9 -10 20 0 11 -7 23 -15 26 -9 4 -15 19 -15 35 0 19 -5 29 -15 29 -8 0 -15 9 -15 20 0 27 -120 138 -152 140 -3 0 -4 -9 -1 -20z"/> <path d="M4460 8222 c0 -16 47 -37 95 -44 100 -13 135 -21 146 -34 6 -8 24 -14 39 -14 23 0 73 -28 90 -51 3 -4 20 -10 39 -14 19 -4 45 -19 58 -34 13 -14 36 -39 51 -56 29 -32 92 -127 92 -139 0 -11 64 -95 72 -96 9 0 -73 161 -114 226 -42 66 -111 119 -223 171 -16 8 -38 18 -47 24 -10 5 -30 9 -46 9 -15 0 -45 9 -67 20 -22 11 -58 20 -82 20 -23 0 -45 5 -48 10 -7 12 -55 14 -55 2z"/> <path d="M4315 8210 c-7 -12 18 -24 37 -18 8 3 5 9 -9 16 -14 8 -24 9 -28 2z"/> <path d="M3945 8200 c-4 -6 5 -10 19 -10 14 0 26 5 26 10 0 6 -9 10 -19 10 -11 0 -23 -4 -26 -10z"/> <path d="M3558 8161 c-19 -44 -65 -91 -88 -91 -9 0 -30 -14 -49 -30 -27 -25 -31 -33 -21 -45 10 -12 9 -15 -7 -15 -10 0 -25 -8 -34 -17 -8 -10 -35 -41 -59 -69 -25 -28 -70 -79 -100 -114 -30 -34 -58 -70 -61 -79 -4 -9 -31 -44 -62 -78 -30 -33 -67 -86 -82 -117 -15 -31 -31 -56 -36 -56 -4 0 -22 -28 -39 -62 -18 -35 -36 -67 -41 -73 -5 -5 -9 -17 -9 -27 0 -10 -4 -18 -8 -18 -8 0 -62 -101 -62 -116 0 -6 -5 -15 -12 -22 -6 -6 -13 -36 -13 -64 -2 -55 -20 -134 -34 -153 -11 -13 -30 -93 -41 -173 -5 -35 -13 -68 -17 -75 -4 -7 -13 -61 -20 -122 -7 -60 -16 -128 -19 -149 -5 -29 -3 -41 9 -47 12 -7 15 -38 16 -173 1 -119 6 -172 16 -193 7 -15 19 -50 26 -78 6 -27 17 -66 25 -85 7 -19 15 -57 18 -84 3 -27 10 -54 15 -60 12 -15 41 -168 41 -219 1 -23 5 -62 11 -87 5 -25 14 -74 19 -110 6 -36 13 -79 16 -95 5 -27 1 -33 -32 -55 -76 -50 -109 -148 -107 -320 2 -191 68 -386 213 -637 43 -74 46 -79 120 -170 35 -44 51 -74 56 -105 4 -24 21 -65 39 -93 18 -27 35 -57 38 -65 13 -36 6 28 -8 75 -10 32 -13 65 -9 93 7 48 -9 78 -91 167 -60 66 -140 200 -190 320 -9 22 -25 58 -35 80 -10 22 -25 63 -35 90 -9 28 -21 58 -25 67 -5 9 -14 52 -20 95 -6 43 -14 101 -19 130 -5 36 -3 59 6 75 7 13 12 38 13 56 0 19 6 35 14 38 8 3 17 16 20 29 3 13 20 37 37 54 28 28 36 31 95 31 36 0 77 -6 92 -14 15 -7 42 -16 60 -19 97 -19 137 -37 162 -75 13 -20 37 -52 52 -70 15 -18 28 -39 28 -46 0 -7 11 -34 25 -60 18 -35 29 -76 37 -149 6 -56 10 -113 9 -127 -2 -14 -2 -36 -2 -50 1 -14 3 -65 5 -115 1 -49 6 -110 11 -135 9 -49 15 -142 14 -230 0 -31 9 -85 21 -120 11 -36 23 -91 26 -122 7 -56 6 -58 -28 -90 -19 -18 -46 -40 -58 -49 -40 -27 -17 -40 60 -33 l68 7 42 -89 c23 -49 48 -100 55 -114 7 -14 16 -45 20 -68 4 -24 16 -51 26 -60 12 -11 19 -29 19 -53 0 -46 17 -98 41 -125 11 -12 19 -35 19 -56 0 -20 7 -41 16 -49 22 -18 44 -64 44 -91 0 -13 9 -36 20 -53 11 -16 20 -39 20 -50 0 -42 106 -190 229 -319 173 -183 291 -296 342 -331 24 -16 63 -46 86 -67 24 -21 49 -38 56 -38 8 0 25 -9 38 -21 13 -12 47 -32 74 -46 28 -14 52 -29 55 -33 3 -4 28 -19 55 -34 28 -14 57 -30 65 -35 24 -15 105 -51 115 -51 4 0 44 -21 88 -47 43 -27 93 -56 110 -66 18 -11 43 -29 57 -42 14 -13 42 -27 63 -30 20 -4 37 -11 37 -16 0 -5 10 -14 23 -19 12 -6 29 -15 38 -22 14 -9 20 -8 34 6 22 22 40 16 40 -15 0 -18 7 -25 24 -27 35 -5 44 18 19 45 -22 24 -91 63 -109 63 -6 0 -27 14 -46 30 -18 17 -45 30 -58 30 -15 0 -31 10 -41 25 -9 14 -28 28 -43 32 -14 3 -50 25 -80 47 -29 23 -62 46 -72 52 -10 6 -27 18 -36 27 -10 8 -35 18 -56 22 -20 4 -54 20 -75 35 -21 15 -49 31 -62 35 -12 4 -48 26 -79 50 -31 23 -67 45 -81 48 -32 8 -89 48 -147 104 -24 24 -56 49 -71 57 -15 8 -41 29 -59 48 -17 18 -45 46 -62 61 -17 16 -31 36 -31 45 0 9 -17 31 -37 49 -41 34 -41 38 -2 48 19 5 33 0 56 -19 17 -14 36 -26 42 -26 7 0 33 -11 59 -25 26 -14 52 -25 59 -25 6 0 21 -12 32 -26 11 -14 25 -23 30 -19 6 3 32 -6 58 -20 26 -14 58 -25 70 -25 12 0 25 -4 28 -10 3 -5 21 -16 39 -25 32 -15 33 -15 68 18 l36 34 -33 12 c-19 6 -44 9 -58 6 -17 -5 -36 1 -62 19 -21 14 -50 26 -65 26 -22 0 -29 6 -34 26 -6 23 -10 25 -41 20 -19 -4 -36 -2 -40 4 -4 7 -12 7 -26 0 -15 -9 -20 -7 -24 5 -3 8 -7 22 -10 31 -3 11 -12 14 -25 11 -11 -3 -23 0 -28 7 -4 7 -27 25 -52 40 -25 14 -61 46 -80 71 -38 49 -47 54 -57 28 -4 -10 1 -22 15 -33 27 -22 32 -53 10 -58 -11 -2 -18 3 -18 12 0 10 -17 23 -41 32 -26 11 -49 30 -65 55 -14 23 -32 39 -43 39 -18 0 -111 108 -111 129 0 13 35 41 53 41 25 0 20 19 -13 50 -17 15 -30 34 -30 42 0 17 -41 58 -58 58 -9 0 -10 12 -6 40 6 38 -6 55 -21 30 -9 -14 -45 33 -45 58 0 10 -11 31 -25 46 -13 14 -30 45 -37 67 -10 36 -10 43 5 54 20 14 22 31 5 41 -6 4 -17 -1 -25 -11 -12 -18 -13 -18 -13 1 0 12 -11 43 -25 70 -14 27 -25 58 -25 69 0 39 -12 63 -36 74 -13 6 -24 17 -24 25 0 29 -23 65 -44 68 -16 2 -22 11 -24 41 -3 35 -2 38 18 32 31 -10 47 9 50 62 6 116 -3 183 -26 183 -18 0 -29 29 -39 98 -4 30 -13 56 -22 61 -13 7 -14 14 -6 38 12 32 5 130 -8 139 -5 3 -9 19 -9 35 0 17 -5 40 -11 51 -9 17 -8 24 6 34 14 10 16 22 12 50 -4 22 0 51 9 74 14 35 14 41 -1 69 -9 18 -13 37 -9 43 8 13 22 136 29 252 3 55 0 87 -10 105 -13 25 -14 25 -21 6 -4 -11 -14 -31 -23 -44 -8 -13 -15 -33 -16 -44 0 -11 -5 -22 -12 -24 -8 -3 -13 11 -15 39 -3 38 -6 43 -26 40 -18 -3 -23 3 -29 28 -3 18 -13 34 -22 37 -25 9 -71 55 -65 65 3 5 0 16 -7 24 -9 11 -9 20 0 41 15 33 0 46 -38 31 -14 -5 -39 -7 -56 -4 -18 3 -40 0 -55 -9 -64 -37 -70 -37 -106 -5 -27 23 -44 30 -78 30 -43 0 -43 0 -50 43 -4 23 -9 69 -12 102 -3 33 -12 75 -20 92 -9 21 -13 45 -9 67 7 35 -20 182 -35 191 -5 3 -12 31 -16 63 -3 31 -11 63 -16 69 -12 15 -38 144 -38 186 0 20 -5 27 -20 27 -19 0 -20 4 -14 53 3 28 9 66 14 82 4 17 3 41 -1 54 -9 24 -3 68 13 88 5 6 6 23 2 37 -3 15 -2 32 4 39 5 6 13 23 17 37 7 25 7 25 -24 -4 -20 -20 -31 -39 -31 -58 0 -28 -15 -39 -22 -16 -2 6 0 41 5 77 8 65 27 101 54 101 8 0 13 12 13 36 0 31 -2 35 -21 29 -20 -7 -21 -4 -16 26 2 19 12 66 22 104 9 39 19 84 22 100 3 17 9 35 13 40 4 6 13 35 20 65 7 30 19 64 26 75 8 11 14 44 14 73 0 48 2 53 15 42 17 -14 16 -15 33 20 14 29 29 53 59 97 28 39 28 43 3 43 -21 0 -27 14 -11 24 5 4 27 39 49 79 22 39 48 81 59 92 24 27 73 99 73 109 0 10 87 116 139 171 46 48 158 147 220 194 25 19 53 43 63 53 10 10 22 18 28 18 6 0 6 9 -1 26 -5 15 -7 29 -4 32 3 3 5 0 5 -6 0 -17 37 -15 47 2 4 8 17 15 27 17 11 2 21 10 24 17 5 17 -43 15 -58 -3 -16 -19 -33 -9 -21 13 9 17 -2 52 -17 52 -4 0 -15 -18 -24 -39z"/> <path d="M4178 8188 c8 -8 20 -8 44 -1 l33 11 -44 1 c-34 1 -42 -2 -33 -11z"/> <path d="M4780 8190 c0 -5 11 -10 25 -10 14 0 25 5 25 10 0 6 -11 10 -25 10 -14 0 -25 -4 -25 -10z"/> <path d="M6112 8169 c2 -7 10 -15 17 -17 8 -3 12 1 9 9 -2 7 -10 15 -17 17 -8 3 -12 -1 -9 -9z"/> <path d="M4845 8160 c3 -5 11 -10 16 -10 26 0 269 -212 269 -234 0 -6 16 -29 35 -50 35 -40 35 -40 35 -13 0 25 -86 166 -101 167 -7 0 -40 27 -95 76 -12 11 -40 29 -61 40 -21 10 -39 22 -41 27 -2 4 -17 7 -33 7 -18 0 -28 -4 -24 -10z"/> <path d="M5486 8142 c-3 -6 -1 -14 5 -17 15 -10 25 3 12 16 -7 7 -13 7 -17 1z"/> <path d="M7076 8142 c-3 -6 -1 -14 5 -17 15 -10 25 3 12 16 -7 7 -13 7 -17 1z"/> <path d="M6140 8126 c0 -8 5 -18 10 -21 6 -3 10 3 10 14 0 12 -4 21 -10 21 -5 0 -10 -6 -10 -14z"/> <path d="M5905 8118 c-9 -22 4 -43 17 -30 7 7 7 16 0 29 -10 17 -11 17 -17 1z"/> <path d="M4605 8110 c-3 -5 3 -10 15 -10 12 0 18 5 15 10 -3 6 -10 10 -15 10 -5 0 -12 -4 -15 -10z"/> <path d="M7050 8109 c0 -9 23 -42 50 -73 28 -32 50 -50 50 -41 0 8 -7 18 -15 21 -8 4 -15 12 -15 18 0 7 -16 30 -35 52 -22 25 -35 33 -35 23z"/> <path d="M3764 8061 c-32 -17 -71 -34 -86 -40 -16 -6 -28 -15 -28 -21 0 -16 32 -12 76 9 21 10 65 31 97 46 31 14 57 28 57 31 0 14 -66 0 -116 -25z"/> <path d="M4650 8080 c0 -5 11 -12 24 -16 14 -3 27 -12 30 -20 6 -16 56 -19 56 -3 0 5 -13 15 -30 20 -16 6 -30 15 -30 20 0 5 -11 9 -25 9 -14 0 -25 -4 -25 -10z"/> <path d="M6170 8078 c0 -12 22 -61 101 -223 27 -55 52 -118 57 -139 9 -45 32 -61 32 -23 0 37 -17 83 -73 195 -65 129 -72 141 -86 155 -6 6 -11 19 -11 29 0 10 -4 18 -10 18 -5 0 -10 -5 -10 -12z"/> <path d="M6570 8082 c0 -7 4 -20 9 -30 12 -21 44 -95 62 -142 7 -19 15 -87 18 -150 6 -109 7 -113 18 -75 18 60 27 173 16 187 -6 7 -14 28 -18 47 -7 31 -34 80 -70 126 -9 11 -20 27 -25 35 -7 10 -10 11 -10 2z"/> <path d="M5370 8056 c0 -22 3 -27 11 -19 8 8 8 16 0 30 -9 16 -10 14 -11 -11z"/> <path d="M5940 8038 c0 -16 5 -28 10 -28 13 0 13 20 0 40 -8 12 -10 9 -10 -12z"/> <path d="M7180 8052 c0 -7 5 -12 10 -12 6 0 10 -7 10 -15 0 -8 5 -15 10 -15 16 0 12 15 -10 35 -11 10 -20 13 -20 7z"/> <path d="M4226 8034 c-35 -19 -20 -34 35 -34 54 0 137 -27 208 -68 35 -21 72 -42 82 -48 38 -22 57 -46 63 -80 7 -34 29 -46 40 -21 3 6 4 -1 3 -18 -2 -24 2 -29 16 -27 12 2 17 -4 17 -23 0 -15 6 -25 14 -25 9 0 21 -21 30 -54 15 -50 40 -86 52 -74 8 8 -8 88 -17 88 -5 0 -9 11 -9 25 0 30 20 33 27 5 8 -28 23 -25 23 5 0 14 -7 28 -15 31 -8 4 -15 12 -15 19 0 7 -3 15 -7 17 -8 3 -53 64 -53 72 0 22 -153 146 -179 146 -5 0 -14 7 -21 15 -7 8 -20 15 -29 15 -9 0 -22 5 -29 12 -37 37 -183 50 -236 22z"/> <path d="M4783 8035 c-18 -19 -16 -25 6 -25 10 0 29 -8 42 -19 13 -10 29 -20 36 -22 13 -4 173 -216 173 -228 0 -5 11 -28 25 -52 30 -54 32 -57 44 -91 11 -29 31 -38 31 -15 0 17 -28 75 -40 82 -5 3 -11 19 -15 35 -4 17 -11 30 -16 30 -5 0 -9 6 -9 13 0 7 -16 36 -35 66 -19 29 -35 55 -35 57 0 13 -66 104 -75 104 -5 0 -20 11 -33 25 -18 18 -79 57 -86 55 -1 -1 -7 -7 -13 -15z"/> <path d="M6456 7994 c-24 -33 -17 -81 24 -158 20 -37 30 -68 28 -91 -1 -19 3 -40 10 -47 7 -7 12 -26 12 -43 0 -34 34 -113 42 -99 11 17 1 239 -12 282 -14 46 -23 52 -39 25 -7 -12 -10 -13 -11 -5 0 8 -9 25 -20 39 -11 15 -18 33 -16 42 22 80 16 100 -18 55z"/> <path d="M7040 8010 c0 -6 7 -13 15 -16 8 -4 15 -18 15 -32 0 -14 6 -33 14 -41 20 -22 43 -97 56 -178 6 -37 15 -86 19 -108 5 -22 7 -75 4 -117 -6 -86 6 -103 31 -43 19 44 19 203 0 265 -8 25 -14 57 -14 72 0 48 -46 130 -101 181 -33 30 -39 32 -39 17z"/> <path d="M3840 7983 c-56 -24 -297 -143 -385 -191 -16 -10 -34 -23 -38 -29 -4 -7 -17 -13 -27 -13 -11 0 -20 -3 -20 -7 0 -5 -32 -26 -70 -48 -65 -37 -84 -55 -59 -55 20 0 94 39 111 59 9 11 36 25 60 31 24 7 50 18 58 25 24 21 188 105 205 105 8 0 23 4 33 9 42 21 109 49 132 55 35 8 95 60 86 74 -9 16 -10 15 -86 -15z"/> <path d="M7230 7999 c0 -13 32 -69 41 -69 5 0 9 -5 9 -11 0 -6 14 -28 30 -49 17 -21 30 -41 30 -45 0 -4 7 -21 15 -38 52 -113 88 -265 81 -342 -3 -33 -5 -79 -5 -101 0 -24 -7 -48 -16 -57 -17 -17 -21 -67 -5 -67 6 0 10 13 10 29 0 20 6 32 18 35 28 9 55 117 49 194 -3 35 -10 69 -16 75 -6 6 -11 31 -11 56 0 26 -6 57 -13 71 -8 14 -17 41 -20 59 -9 43 -67 137 -112 180 -19 19 -35 38 -35 42 0 5 -5 9 -11 9 -7 0 -18 8 -25 18 -7 9 -14 14 -14 11z"/> <path d="M6890 7921 c0 -39 -4 -73 -10 -76 -5 -3 -10 -27 -10 -53 l0 -47 26 53 c26 54 32 104 19 160 -12 55 -25 35 -25 -37z"/> <path d="M4120 7960 c-60 -11 -92 -24 -151 -62 -53 -35 -61 -48 -29 -48 20 0 40 9 148 70 29 17 57 28 62 25 6 -3 27 -3 47 1 31 6 34 8 18 15 -24 9 -36 9 -95 -1z"/> <path d="M5995 7863 c4 -32 11 -66 16 -75 5 -9 9 -42 9 -72 0 -31 5 -56 10 -56 17 0 12 146 -5 160 -9 8 -15 30 -15 56 0 26 -5 44 -11 44 -8 0 -9 -18 -4 -57z"/> <path d="M4736 7898 c8 -15 66 -91 74 -98 12 -11 65 -95 79 -127 5 -11 15 -24 20 -28 6 -3 11 -15 11 -26 0 -11 7 -22 15 -25 9 -4 15 -19 15 -40 0 -38 14 -44 30 -15 15 28 12 67 -5 81 -8 7 -15 20 -15 30 0 10 -7 23 -15 30 -8 7 -15 17 -15 22 0 14 -128 176 -153 193 -26 18 -51 20 -41 3z"/> <path d="M7002 7899 c2 -7 10 -15 17 -17 8 -3 12 1 9 9 -2 7 -10 15 -17 17 -8 3 -12 -1 -9 -9z"/> <path d="M4220 7876 c0 -13 -12 -16 -57 -16 l-58 -1 54 -19 c30 -11 61 -26 71 -35 9 -8 23 -15 31 -15 23 0 98 -29 127 -49 15 -10 46 -31 70 -47 23 -16 50 -33 60 -39 50 -29 160 -106 176 -124 11 -12 23 -21 28 -21 20 0 5 30 -39 77 -56 60 -83 94 -83 104 0 4 -8 10 -19 14 -10 3 -41 26 -67 50 -58 53 -161 106 -229 118 -16 3 -38 9 -47 12 -13 5 -18 2 -18 -9z"/> <path d="M5403 7857 c5 -14 18 -123 21 -175 0 -15 6 -29 11 -32 15 -7 18 65 5 118 -6 26 -14 59 -17 75 -3 15 -10 27 -15 27 -6 0 -8 -6 -5 -13z"/> <path d="M7030 7829 c0 -24 23 -21 28 4 2 10 -3 17 -12 17 -10 0 -16 -9 -16 -21z"/> <path d="M3681 7804 c-35 -18 -71 -40 -80 -48 -10 -9 -23 -16 -29 -16 -7 0 -29 -15 -49 -33 -62 -53 -116 -93 -150 -111 -18 -9 -33 -23 -33 -31 0 -19 20 -19 45 -1 11 7 61 30 110 51 50 21 97 44 106 52 8 7 21 13 27 13 16 0 15 27 0 34 -7 4 -3 4 9 2 17 -3 39 12 89 60 55 54 62 64 42 63 -12 -1 -52 -16 -87 -35z"/> <path d="M7266 7774 c3 -27 10 -57 15 -66 5 -9 9 -28 9 -41 0 -14 8 -42 18 -63 l17 -39 3 59 c2 42 -1 63 -13 76 -8 9 -13 24 -10 32 4 9 -1 22 -9 31 -9 9 -16 22 -16 31 0 8 -5 18 -11 21 -7 5 -8 -8 -3 -41z"/> <path d="M4102 7783 c-21 -8 -2 -23 31 -23 18 0 41 -7 51 -15 22 -17 76 -20 76 -5 0 5 -12 13 -27 16 -15 4 -38 13 -52 20 -26 14 -56 17 -79 7z"/> <path d="M6220 7740 c0 -19 7 -33 20 -40 11 -6 20 -18 20 -27 0 -9 2 -14 5 -11 3 3 0 28 -6 57 -12 57 -39 72 -39 21z"/> <path d="M3910 7714 c-30 -19 -56 -39 -58 -44 -2 -6 -10 -10 -17 -10 -24 0 -65 -23 -65 -36 0 -8 12 -10 43 -7 23 4 44 9 47 13 8 11 229 40 304 40 43 0 66 4 64 10 -6 18 -175 70 -221 69 -29 -1 -59 -11 -97 -35z"/> <path d="M5966 7718 c-5 -21 -6 -57 -4 -80 3 -27 -2 -58 -13 -85 -10 -22 -21 -62 -24 -86 -6 -41 -5 -45 12 -41 25 7 40 45 49 122 4 42 11 62 20 62 9 0 14 -13 15 -37 1 -21 5 -49 9 -63 6 -17 8 2 7 55 -2 75 -3 80 -23 77 -18 -2 -22 5 -30 55 l-10 58 -8 -37z"/> <path d="M7046 7724 c-3 -9 -6 -33 -6 -54 0 -21 -6 -51 -14 -67 -42 -86 -48 -103 -42 -118 8 -23 26 -9 26 21 0 20 4 25 23 22 20 -3 23 2 30 57 7 54 11 128 8 148 -2 13 -19 7 -25 -9z"/> <path d="M5521 7635 c1 -100 5 -101 17 -7 7 47 6 67 -4 80 -11 14 -13 3 -13 -73z"/> <path d="M3728 7671 c-30 -19 -27 -31 5 -31 18 0 46 25 47 43 0 12 -23 7 -52 -12z"/> <path d="M6457 7673 c-11 -10 -8 -43 3 -43 6 0 10 11 10 25 0 26 -2 29 -13 18z"/> <path d="M4275 7660 c-4 -6 7 -10 27 -9 27 0 30 2 13 9 -27 12 -33 12 -40 0z"/> <path d="M4820 7642 c0 -11 7 -33 15 -48 8 -16 15 -36 15 -45 0 -9 7 -19 15 -23 8 -3 15 -15 15 -27 0 -12 4 -38 10 -58 5 -20 12 -49 15 -64 3 -15 10 -25 15 -22 15 9 12 69 -5 101 -8 16 -15 38 -15 49 0 11 -7 29 -15 39 -8 11 -15 27 -15 37 0 9 -7 19 -15 23 -8 3 -15 14 -15 25 0 11 -4 23 -10 26 -5 3 -10 -3 -10 -13z"/> <path d="M6365 7608 c8 -63 8 -165 0 -178 -4 -6 -4 -23 0 -38 6 -25 7 -26 18 -7 6 11 12 65 15 120 4 92 3 102 -17 125 l-22 25 6 -47z"/> <path d="M5821 7619 c-1 -15 5 -41 13 -59 10 -25 14 -28 19 -16 4 9 3 24 -2 34 -5 9 -14 28 -19 42 l-11 25 0 -26z"/> <path d="M6267 7503 c-4 -65 -16 -154 -27 -198 -11 -44 -18 -85 -16 -92 7 -18 26 -16 26 2 0 9 6 26 14 38 8 12 17 47 21 77 4 30 12 66 16 79 10 25 -4 171 -19 197 -6 10 -11 -28 -15 -103z"/> <path d="M3730 7600 c-12 -8 -11 -10 8 -10 12 0 22 5 22 10 0 13 -11 13 -30 0z"/> <path d="M5408 7604 c-5 -4 -8 -21 -8 -38 0 -17 -6 -43 -14 -58 -8 -14 -17 -46 -21 -69 -8 -44 -10 -50 -38 -107 -9 -19 -17 -38 -17 -44 0 -5 -7 -25 -16 -44 -9 -19 -14 -38 -10 -41 4 -4 9 3 13 15 3 12 11 22 18 22 14 0 25 22 25 51 0 10 4 19 10 19 5 0 12 17 16 38 4 20 12 40 18 44 6 4 11 24 12 44 1 20 7 39 13 43 8 5 11 30 9 70 -2 35 -6 59 -10 55z"/> <path d="M6517 7573 c-9 -8 -9 -61 -1 -90 11 -41 34 -27 34 20 -1 41 -20 83 -33 70z"/> <path d="M3575 7560 c-7 -11 35 -11 80 0 26 7 23 8 -22 9 -28 0 -55 -3 -58 -9z"/> <path d="M4312 7558 c6 -18 28 -21 28 -4 0 9 -7 16 -16 16 -9 0 -14 -5 -12 -12z"/> <path d="M4515 7560 c3 -5 13 -10 21 -10 8 0 12 5 9 10 -3 6 -13 10 -21 10 -8 0 -12 -4 -9 -10z"/> <path d="M6626 7542 c-4 -13 -5 -26 -2 -29 10 -11 18 4 14 29 l-4 23 -8 -23z"/> <path d="M6828 7528 c-9 -20 -25 -45 -35 -56 -36 -38 -105 -161 -101 -182 5 -21 61 38 88 90 11 21 24 41 30 45 5 3 10 16 10 27 0 12 7 29 16 39 9 10 14 29 12 46 l-4 28 -16 -37z"/> <path d="M4987 7498 c-4 -29 -3 -56 2 -61 15 -15 43 51 36 84 -11 47 -32 35 -38 -23z"/> <path d="M7346 7524 c-9 -24 -7 -102 3 -108 9 -6 41 79 41 108 0 21 -36 21 -44 0z"/> <path d="M3950 7511 c-8 -5 -53 -18 -99 -30 -46 -11 -92 -28 -101 -36 -9 -8 -22 -15 -28 -15 -6 0 -27 -13 -45 -30 -19 -16 -38 -30 -41 -30 -12 0 -66 -43 -66 -53 0 -12 58 2 94 24 17 10 52 30 79 44 26 14 47 30 47 35 0 6 9 10 20 10 10 0 23 7 28 16 7 13 20 14 71 8 69 -8 73 -19 5 -19 -27 0 -48 -6 -56 -16 -7 -8 -25 -23 -40 -32 -16 -10 -28 -22 -28 -27 0 -13 33 -13 47 1 6 6 39 13 74 16 35 3 69 9 74 13 6 5 46 17 90 29 70 17 94 19 195 11 71 -5 137 -16 174 -29 73 -26 79 -26 66 -1 -6 11 -19 20 -29 20 -11 0 -41 11 -68 25 -26 14 -75 30 -108 36 -33 6 -77 16 -97 21 -43 13 -141 -3 -187 -30 -36 -20 -54 -7 -23 17 13 9 20 20 16 24 -10 9 -46 8 -64 -2z"/> <path d="M4380 7510 c0 -5 16 -10 35 -10 20 0 47 -7 60 -16 13 -8 36 -14 52 -12 l28 4 -30 8 c-16 4 -45 14 -63 22 -38 16 -82 19 -82 4z"/> <path d="M6946 7451 c-9 -9 -16 -23 -16 -30 0 -6 -11 -17 -25 -23 -14 -6 -25 -14 -25 -18 0 -3 -18 -26 -40 -50 -22 -25 -45 -50 -50 -57 -5 -6 -19 -18 -32 -27 -12 -9 -18 -19 -14 -23 4 -4 13 -1 19 7 7 8 25 22 41 30 16 8 31 23 34 33 2 9 9 17 14 17 14 0 128 121 128 136 0 22 -17 24 -34 5z"/> <path d="M4808 7455 c-8 -8 14 -65 25 -65 12 0 4 63 -9 67 -5 2 -13 1 -16 -2z"/> <path d="M5030 7431 c0 -16 -3 -44 -6 -62 l-6 -34 16 29 c18 31 22 96 6 96 -5 0 -10 -13 -10 -29z"/> <path d="M5977 7410 c-9 -22 -17 -47 -17 -55 0 -8 -4 -15 -10 -15 -5 0 -10 -14 -10 -30 0 -18 -6 -33 -15 -36 -18 -7 -21 -68 -3 -62 19 7 56 85 64 134 3 24 10 47 15 50 11 6 12 54 1 54 -4 0 -15 -18 -25 -40z"/> <path d="M5217 7433 c-15 -14 -6 -53 15 -64 18 -10 20 -9 15 6 -4 9 -7 28 -7 41 0 23 -10 31 -23 17z"/> <path d="M5790 7404 c0 -21 4 -33 10 -29 6 3 10 19 10 36 0 16 -4 29 -10 29 -5 0 -10 -16 -10 -36z"/> <path d="M3295 7400 c-22 -16 -49 -30 -59 -32 -11 -2 -21 -9 -24 -15 -5 -18 33 -16 48 2 7 8 18 15 26 15 18 0 84 40 84 51 0 17 -35 7 -75 -21z"/> <path d="M3523 7423 c-14 -5 -18 -23 -5 -23 5 0 17 7 28 15 14 11 15 14 4 14 -8 0 -21 -3 -27 -6z"/> <path d="M6495 7407 c-24 -26 -50 -99 -42 -118 3 -8 6 -2 6 13 1 16 9 32 20 37 19 11 45 63 40 80 -2 6 -13 0 -24 -12z"/> <path d="M6573 7423 c-15 -5 -18 -43 -4 -43 5 0 11 10 14 22 7 26 6 27 -10 21z"/> <path d="M7203 7402 c-26 -12 -33 -22 -33 -45 0 -30 0 -30 20 -12 15 13 59 83 47 74 -1 -1 -17 -9 -34 -17z"/> <path d="M4540 7380 c0 -5 7 -10 15 -10 8 0 15 5 15 10 0 6 -7 10 -15 10 -8 0 -15 -4 -15 -10z"/> <path d="M7066 7356 c-20 -31 -20 -46 -2 -46 14 0 33 56 23 66 -2 3 -12 -7 -21 -20z"/> <path d="M5210 7319 c0 -11 5 -17 10 -14 6 3 10 13 10 21 0 8 -4 14 -10 14 -5 0 -10 -9 -10 -21z"/> <path d="M5490 7320 c0 -11 5 -20 10 -20 6 0 10 9 10 20 0 11 -4 20 -10 20 -5 0 -10 -9 -10 -20z"/> <path d="M4920 7304 c0 -31 23 -28 28 4 2 15 -2 22 -12 22 -11 0 -16 -9 -16 -26z"/> <path d="M5510 7275 c0 -8 5 -15 10 -15 6 0 10 7 10 15 0 8 -4 15 -10 15 -5 0 -10 -7 -10 -15z"/> <path d="M7011 7271 c-13 -10 -22 -23 -20 -29 3 -7 13 -4 28 7 13 10 22 23 20 29 -3 7 -13 4 -28 -7z"/> <path d="M4071 7265 c-29 -7 -56 -17 -60 -23 -3 -5 -16 -12 -29 -13 -29 -5 -30 -21 -2 -31 17 -6 23 -4 27 12 6 21 37 27 49 9 10 -16 -44 -55 -95 -70 -38 -11 -45 -10 -56 4 -14 19 -65 14 -100 -10 -11 -7 -26 -13 -34 -13 -8 0 -28 -11 -45 -24 -17 -13 -41 -26 -53 -30 -11 -4 -24 -13 -27 -21 -3 -8 -15 -15 -26 -15 -11 0 -23 -6 -26 -14 -3 -8 -18 -19 -32 -25 -15 -6 -40 -20 -57 -30 -16 -11 -49 -30 -72 -42 -46 -24 -59 -51 -20 -41 12 3 27 12 32 19 9 12 16 12 36 3 21 -10 31 -8 62 10 20 12 37 26 37 31 0 5 8 9 18 9 26 0 62 29 62 50 0 12 10 21 30 25 17 4 30 10 30 15 0 5 10 12 23 16 12 3 42 20 66 36 34 22 49 27 64 21 18 -8 17 -11 -19 -33 -21 -14 -46 -28 -54 -32 -9 -4 -2 -7 18 -7 18 -1 40 6 48 14 9 8 25 15 36 15 11 0 43 12 72 27 80 41 84 43 148 63 96 30 232 46 263 32 32 -15 65 -16 65 -2 0 6 -11 10 -25 10 -14 0 -28 6 -31 14 -6 15 -54 32 -138 46 -75 13 -117 12 -185 -5z"/> <path d="M6837 7240 c-34 -32 -38 -40 -22 -40 18 0 39 17 74 63 26 33 -9 18 -52 -23z"/> <path d="M3600 7260 c0 -13 11 -13 30 0 12 8 11 10 -7 10 -13 0 -23 -4 -23 -10z"/> <path d="M4940 7235 c0 -15 4 -24 10 -20 6 3 10 12 10 20 0 8 -4 17 -10 20 -6 4 -10 -5 -10 -20z"/> <path d="M5790 7235 c0 -8 5 -15 10 -15 6 0 10 7 10 15 0 8 -4 15 -10 15 -5 0 -10 -7 -10 -15z"/> <path d="M6437 7243 c-10 -10 -8 -43 2 -43 9 0 21 24 21 41 0 11 -14 12 -23 2z"/> <path d="M3177 7197 c-49 -55 -57 -67 -57 -95 l0 -23 30 23 c17 12 30 27 30 33 0 7 10 23 23 37 12 14 28 35 35 47 23 39 -20 24 -61 -22z"/> <path d="M3505 7215 c-16 -13 -26 -27 -22 -31 4 -4 15 0 24 8 10 9 32 23 48 31 29 16 30 16 5 16 -14 0 -38 -11 -55 -24z"/> <path d="M5425 7211 c-6 -11 9 -23 19 -14 9 9 7 23 -3 23 -6 0 -12 -4 -16 -9z"/> <path d="M6952 7208 c-16 -16 -15 -28 3 -28 8 0 19 9 25 20 8 15 8 20 -3 20 -7 0 -18 -5 -25 -12z"/> <path d="M6340 7185 c0 -14 6 -25 13 -25 21 0 27 11 16 31 -14 27 -29 23 -29 -6z"/> <path d="M7465 7190 c-3 -10 -3 -34 0 -53 5 -24 1 -48 -14 -80 -12 -25 -21 -50 -21 -54 0 -55 -68 -153 -105 -153 -8 0 -15 -4 -15 -10 0 -29 89 11 110 50 6 12 20 30 31 41 11 11 19 33 19 54 0 20 9 53 20 75 25 49 28 135 4 144 -22 8 -22 8 -29 -14z"/> <path d="M3640 7183 c-13 -9 -57 -34 -97 -55 -76 -39 -79 -41 -127 -83 -37 -32 -27 -44 16 -17 18 11 84 51 146 87 104 62 131 85 99 85 -7 0 -23 -8 -37 -17z"/> <path d="M5580 7139 c-7 -11 -9 -24 -5 -27 7 -7 35 25 35 40 0 16 -19 8 -30 -13z"/> <path d="M4450 7140 c20 -13 40 -13 40 0 0 6 -12 10 -27 10 -22 0 -25 -2 -13 -10z"/> <path d="M4300 7117 c-24 -11 -24 -11 14 -15 42 -4 58 4 36 18 -18 12 -19 12 -50 -3z"/> <path d="M4486 7098 c-10 -6 -40 -8 -67 -5 -52 6 -66 -7 -25 -23 35 -13 124 -9 130 6 8 20 -16 34 -38 22z"/> <path d="M4150 7081 c-8 -4 -31 -15 -50 -24 -164 -74 -206 -98 -239 -140 -12 -15 -11 -17 8 -17 11 0 30 9 41 20 11 11 30 20 43 20 13 0 42 14 65 31 32 23 49 29 68 25 32 -8 64 1 64 19 0 15 43 45 65 45 8 0 15 -4 15 -10 0 -5 -7 -10 -15 -10 -20 0 -19 -17 3 -28 18 -10 102 19 102 36 0 27 -132 53 -170 33z"/> <path d="M4564 7042 c-10 -20 -20 -40 -22 -44 -2 -5 10 -8 26 -8 23 0 32 6 38 22 4 13 14 28 23 35 19 13 15 18 -20 26 -22 6 -28 1 -45 -31z"/> <path d="M7335 7036 c-19 -14 -19 -16 -3 -32 21 -22 31 -14 26 21 -3 24 -4 25 -23 11z"/> <path d="M3720 7020 c-7 -14 -7 -20 0 -20 5 0 10 5 10 10 0 6 7 10 16 10 8 0 12 5 9 10 -10 16 -23 12 -35 -10z"/> <path d="M4767 7020 c18 -7 22 -15 17 -37 -4 -24 0 -31 26 -45 32 -18 60 -23 60 -12 0 4 -13 22 -30 41 -16 18 -30 40 -30 48 0 10 -10 15 -32 14 -30 0 -31 -1 -11 -9z"/> <path d="M4890 7010 c0 -19 3 -21 12 -12 9 9 9 15 0 24 -9 9 -12 7 -12 -12z"/> <path d="M5031 7006 c-8 -10 -9 -16 -1 -21 13 -8 30 3 30 21 0 18 -14 18 -29 0z"/> <path d="M6094 6996 c-22 -17 -11 -35 13 -20 19 12 29 34 16 34 -5 0 -18 -6 -29 -14z"/> <path d="M6393 6997 c-3 -5 1 -15 9 -23 12 -12 19 -12 53 5 22 11 38 21 35 21 -32 6 -92 4 -97 -3z"/> <path d="M5504 6989 c-8 -14 11 -33 25 -25 11 7 4 36 -9 36 -5 0 -12 -5 -16 -11z"/> <path d="M6915 6990 c-3 -5 3 -10 14 -10 11 0 23 5 26 10 3 6 -3 10 -14 10 -11 0 -23 -4 -26 -10z"/> <path d="M4934 6979 c-7 -11 10 -52 34 -81 12 -15 13 -20 2 -34 -12 -13 -11 -17 1 -25 21 -13 49 -11 49 5 0 8 -6 16 -14 19 -8 3 -17 25 -21 49 -3 24 -9 51 -11 61 -6 19 -29 23 -40 6z"/> <path d="M5176 6975 c-3 -8 -12 -15 -20 -15 -9 0 -30 -13 -48 -29 -18 -16 -42 -30 -52 -32 -11 -2 -21 -10 -24 -18 -4 -11 5 -13 49 -7 30 4 58 11 64 17 5 5 20 9 35 9 23 0 25 4 27 45 1 31 -2 45 -12 45 -7 0 -15 -7 -19 -15z"/> <path d="M3766 6955 c-31 -24 -11 -28 25 -6 26 16 29 21 14 21 -11 -1 -29 -7 -39 -15z"/> <path d="M4448 6956 c-26 -19 -22 -26 12 -26 20 0 30 -5 30 -15 0 -17 23 -20 51 -5 32 18 23 33 -16 26 -31 -6 -35 -4 -35 14 0 23 -17 25 -42 6z"/> <path d="M6346 6943 c9 -36 7 -36 38 -22 32 15 34 35 4 43 -43 11 -49 8 -42 -21z"/> <path d="M7242 6958 c-17 -17 -15 -28 4 -28 9 0 23 -8 30 -17 13 -17 15 -17 29 1 21 28 19 43 -7 50 -33 8 -43 7 -56 -6z"/> <path d="M5418 6946 c-26 -19 -22 -36 7 -36 18 0 25 -5 25 -20 0 -17 7 -20 48 -20 27 0 57 -6 68 -15 42 -31 45 -13 4 25 -24 22 -49 40 -56 40 -7 0 -18 9 -24 20 -12 23 -47 26 -72 6z"/> <path d="M6690 6948 c0 -11 29 -37 43 -38 18 0 5 28 -18 38 -18 9 -25 9 -25 0z"/> <path d="M5900 6935 c-10 -13 -9 -15 9 -15 12 0 21 6 21 15 0 8 -4 15 -9 15 -5 0 -14 -7 -21 -15z"/> <path d="M6230 6941 c0 -5 -21 -19 -46 -31 -70 -34 -121 -90 -82 -90 10 0 97 41 148 69 8 5 27 15 43 22 15 7 26 17 24 23 -4 14 -87 21 -87 7z"/> <path d="M5987 6918 c-2 -9 -29 -13 -83 -13 -83 -1 -122 -9 -139 -31 -5 -7 -32 -21 -59 -31 -83 -30 -70 -41 54 -41 91 1 112 4 120 17 6 11 24 16 57 17 114 3 170 30 109 53 -13 5 -26 17 -29 25 -8 19 -24 21 -30 4z"/> <path d="M3625 6881 c-38 -20 -82 -48 -97 -63 -15 -16 -32 -28 -38 -28 -5 0 -10 -7 -10 -15 0 -24 26 -17 38 10 6 14 24 27 39 31 15 4 45 18 65 31 21 12 43 23 50 23 14 1 58 34 58 44 0 14 -40 2 -105 -33z"/> <path d="M4204 6909 c-2 -4 2 -9 9 -12 18 -7 77 4 77 14 0 10 -80 7 -86 -2z"/> <path d="M3027 6903 c-4 -3 -7 -15 -7 -25 0 -26 24 -17 28 10 3 21 -8 29 -21 15z"/> <path d="M5600 6900 c0 -5 6 -10 14 -10 8 0 18 5 21 10 3 6 -3 10 -14 10 -12 0 -21 -4 -21 -10z"/> <path d="M6763 6898 c-38 -18 -28 -50 35 -115 95 -99 172 -138 172 -88 0 22 -41 75 -58 75 -7 0 -24 13 -38 29 -14 17 -34 33 -45 36 -14 5 -18 12 -14 26 6 19 -9 50 -24 48 -3 0 -16 -5 -28 -11z"/> <path d="M4129 6858 c-35 -39 -36 -48 -6 -48 27 0 71 45 63 65 -8 23 -24 18 -57 -17z"/> <path d="M4356 6856 c-70 -48 -136 -107 -136 -122 0 -7 -20 -34 -45 -60 -25 -26 -53 -60 -61 -76 -22 -43 -118 -134 -149 -142 -28 -7 -145 -122 -145 -144 0 -7 -11 -17 -25 -22 -14 -5 -25 -14 -25 -19 0 -5 -9 -13 -21 -16 -17 -6 -19 -12 -14 -33 13 -55 39 -49 55 13 3 11 18 26 33 33 15 7 27 19 27 27 0 18 45 52 79 60 29 6 171 134 171 153 0 19 225 242 244 242 14 0 17 5 13 21 -4 14 -2 19 7 16 7 -3 24 8 37 25 13 16 36 36 52 44 38 20 34 34 -10 34 -26 -1 -53 -11 -87 -34z"/> <path d="M5340 6863 c-63 -44 -34 -68 46 -37 39 15 43 19 27 27 -10 6 -22 16 -28 22 -8 9 -19 6 -45 -12z"/> <path d="M3343 6847 c-11 -12 -25 -36 -31 -54 l-10 -31 31 16 c39 21 47 30 47 59 0 32 -14 36 -37 10z"/> <path d="M3760 6832 c-30 -20 -75 -48 -100 -61 -55 -30 -117 -78 -124 -97 -4 -10 3 -14 20 -14 18 0 28 7 31 20 3 11 16 23 29 26 13 4 32 20 42 36 13 23 22 28 41 25 15 -3 39 4 63 19 21 13 42 24 47 24 14 0 33 38 26 50 -9 15 -16 13 -75 -28z"/> <path d="M4034 6807 c-12 -6 -30 -25 -40 -41 -10 -17 -22 -34 -28 -38 -6 -4 -8 -10 -4 -13 9 -10 46 17 51 37 4 12 11 16 22 12 16 -7 44 20 45 44 0 14 -16 14 -46 -1z"/> <path d="M7237 6813 c-11 -10 -8 -41 4 -48 5 -4 21 -4 35 -1 17 5 24 13 24 31 0 21 -5 25 -28 25 -16 0 -32 -3 -35 -7z"/> <path d="M7176 6730 c-14 -22 -21 -40 -15 -40 7 0 18 -8 24 -17 12 -17 14 -17 34 1 21 19 27 50 15 80 -10 26 -30 18 -58 -24z"/> <path d="M3878 6670 c-14 -16 -36 -30 -47 -30 -12 0 -21 -4 -21 -9 0 -10 24 -21 44 -21 15 0 86 67 86 80 0 21 -37 9 -62 -20z"/> <path d="M7145 6608 c-3 -13 -7 -45 -8 -73 -2 -27 -10 -64 -19 -82 -8 -17 -13 -43 -11 -57 4 -17 -1 -34 -13 -47 -13 -14 -15 -22 -6 -31 7 -7 8 -17 1 -30 -13 -25 -37 -23 -49 5 -14 32 -30 135 -24 150 8 21 -21 39 -51 31 -23 -6 -26 -11 -21 -33 3 -14 9 -42 12 -61 4 -19 15 -45 26 -56 17 -19 18 -27 9 -61 -6 -21 -11 -64 -10 -94 0 -29 -3 -110 -6 -179 -3 -69 -1 -192 5 -275 11 -161 31 -238 59 -233 13 3 17 22 23 90 3 47 11 95 17 106 6 12 11 50 11 87 0 36 6 78 14 93 16 33 37 170 30 198 -3 12 3 36 15 55 12 19 21 48 21 66 0 18 5 44 12 58 9 20 9 34 -2 63 -7 20 -13 50 -12 65 1 15 -3 37 -9 48 -9 18 -6 25 20 50 25 22 31 36 31 69 0 74 -51 135 -65 78z m-85 -385 c17 -15 30 -36 30 -50 0 -20 -4 -22 -24 -17 -14 3 -27 1 -31 -6 -12 -20 -25 10 -25 58 0 49 9 52 50 15z"/> <path d="M2972 6583 c-18 -21 -32 -48 -32 -61 0 -23 0 -23 23 5 13 15 26 36 30 46 3 9 11 17 17 17 5 0 10 7 10 15 0 24 -14 18 -48 -22z"/> <path d="M3159 6578 c-57 -63 -47 -81 11 -21 28 28 50 54 50 57 0 17 -27 1 -61 -36z"/> <path d="M3754 6592 c-61 -52 -118 -97 -133 -105 -9 -4 0 -4 19 -1 46 8 62 8 82 -1 13 -5 20 -1 27 18 6 14 19 28 30 32 15 4 21 15 21 36 0 16 0 32 1 36 1 17 -18 11 -47 -15z"/> <path d="M3987 6613 c-4 -3 -7 -15 -7 -25 0 -26 24 -17 28 10 3 21 -8 29 -21 15z"/> <path d="M6880 6607 c0 -7 20 -32 44 -56 51 -50 64 -39 32 26 -17 34 -26 42 -48 43 -17 0 -28 -5 -28 -13z"/> <path d="M3330 6570 c0 -13 20 -13 40 0 12 8 9 10 -12 10 -16 0 -28 -4 -28 -10z"/> <path d="M3930 6544 c0 -10 7 -14 22 -12 32 5 35 28 4 28 -17 0 -26 -5 -26 -16z"/> <path d="M2925 6482 c-6 -4 -16 -20 -23 -35 -11 -25 -10 -28 5 -25 9 2 20 16 24 32 9 33 8 38 -6 28z"/> <path d="M3503 6453 c-20 -8 -15 -23 7 -23 11 0 20 7 20 15 0 15 -6 17 -27 8z"/> <path d="M3410 6380 c0 -13 5 -20 13 -17 6 2 12 10 12 17 0 7 -6 15 -12 18 -8 2 -13 -5 -13 -18z"/> <path d="M3330 6380 c0 -5 6 -10 14 -10 8 0 18 5 21 10 3 6 -3 10 -14 10 -12 0 -21 -4 -21 -10z"/> <path d="M3285 6320 c-17 -18 -17 -20 -1 -20 9 0 19 7 23 15 9 25 -2 27 -22 5z"/> <path d="M3165 6279 c-4 -6 -4 -13 -1 -16 8 -8 36 5 36 17 0 13 -27 13 -35 -1z"/> <path d="M3081 6188 c-10 -27 -7 -33 14 -25 17 7 21 47 5 47 -6 0 -14 -10 -19 -22z"/> <path d="M3708 6109 c-10 -17 -18 -37 -18 -45 0 -8 -7 -17 -15 -20 -16 -7 -21 -44 -6 -44 18 0 61 47 61 66 0 11 7 28 15 38 12 16 12 22 2 28 -18 12 -21 10 -39 -23z"/> <path d="M3338 6081 c-22 -22 -23 -31 -3 -31 12 0 35 28 35 44 0 11 -15 5 -32 -13z"/> <path d="M3810 5971 c0 -5 -9 -11 -20 -14 -12 -3 -20 -14 -20 -26 0 -29 18 -26 32 4 6 14 15 25 20 25 4 0 8 5 8 10 0 6 -4 10 -10 10 -5 0 -10 -4 -10 -9z"/> <path d="M3200 5915 c0 -8 5 -15 10 -15 6 0 10 7 10 15 0 8 -4 15 -10 15 -5 0 -10 -7 -10 -15z"/> <path d="M3702 5873 c-13 -14 -20 -33 -17 -41 4 -12 13 -8 40 18 19 19 35 38 35 42 0 18 -36 6 -58 -19z"/> <path d="M3171 5866 c-9 -10 -8 -16 4 -26 13 -11 15 -8 15 14 0 30 -3 32 -19 12z"/> <path d="M3760 5786 c0 -9 -7 -12 -19 -9 -23 6 -38 -15 -17 -23 22 -9 20 -32 -5 -46 -17 -11 -59 -83 -59 -102 0 -3 -18 -29 -40 -58 -22 -29 -40 -58 -40 -64 0 -6 -6 -24 -14 -40 -21 -44 -28 -104 -12 -104 18 0 41 28 60 73 9 22 27 52 41 69 14 16 25 36 25 44 0 8 4 22 9 32 5 9 19 37 31 62 12 24 30 50 40 57 14 10 50 94 50 117 0 3 -11 6 -25 6 -15 0 -25 -6 -25 -14z"/> <path d="M3620 5730 c0 -26 -6 -42 -16 -48 -9 -5 -15 -14 -13 -20 3 -7 13 -5 27 7 30 22 44 101 18 101 -12 0 -16 -10 -16 -40z"/> <path d="M3564 5629 c-3 -6 -1 -16 5 -22 8 -8 11 -5 11 11 0 24 -5 28 -16 11z"/> <path d="M6752 5631 c-33 -8 -29 -25 7 -32 26 -5 31 -3 31 12 0 23 -9 27 -38 20z"/> <path d="M4577 5624 c-11 -12 3 -24 29 -24 16 0 24 5 22 13 -5 13 -40 22 -51 11z"/> <path d="M4453 5609 c-13 -5 -23 -13 -23 -18 0 -5 -3 -17 -7 -27 -6 -15 -2 -16 32 -11 23 4 44 2 52 -4 7 -6 24 -8 39 -5 22 6 24 9 13 22 -8 10 -21 13 -36 9 -16 -4 -23 -1 -23 9 0 22 -23 35 -47 25z"/> <path d="M4813 5603 c19 -21 14 -33 -15 -33 -10 0 -18 -4 -18 -10 0 -17 50 -11 57 6 7 19 -7 46 -28 52 -10 4 -9 0 4 -15z"/> <path d="M4703 5569 c-18 -16 -33 -34 -33 -40 0 -5 -12 -9 -26 -9 -14 0 -35 -5 -46 -11 -19 -10 -17 -13 28 -36 27 -14 53 -31 57 -39 5 -8 12 -12 16 -9 5 2 108 5 230 6 188 0 226 -2 247 -15 15 -10 33 -14 49 -10 21 5 23 9 14 25 -6 12 -20 19 -38 19 -16 0 -34 7 -41 15 -8 9 -30 15 -57 15 -30 0 -54 7 -71 21 -57 43 -105 70 -119 65 -36 -14 -21 -86 18 -86 12 0 19 -5 17 -12 -7 -19 -97 -21 -104 -3 -4 9 -19 15 -39 15 -18 0 -38 6 -44 14 -7 8 -23 17 -37 20 -21 6 -23 9 -13 27 6 12 20 24 30 26 11 3 18 10 16 16 -7 21 -22 17 -54 -14z m235 -46 c-2 -10 -10 -18 -18 -18 -8 0 -16 8 -18 18 -2 12 3 17 18 17 15 0 20 -5 18 -17z m-214 -66 c-17 -10 -44 8 -44 29 0 10 7 9 29 -4 24 -13 27 -18 15 -25z"/> <path d="M5149 5589 c-22 -13 10 -62 48 -74 42 -14 76 -53 70 -83 -3 -17 1 -24 19 -28 29 -7 48 3 36 19 -5 7 -12 28 -16 48 -11 59 -120 142 -157 118z"/> <path d="M4978 5578 c9 -9 15 -9 24 0 9 9 7 12 -12 12 -19 0 -21 -3 -12 -12z"/> <path d="M5040 5580 c-14 -4 -20 -8 -13 -9 6 -1 26 -14 44 -31 38 -34 49 -31 49 16 0 31 -3 34 -27 33 -16 -1 -39 -5 -53 -9z"/> <path d="M6486 5560 c-34 -30 -35 -30 -46 -11 -8 16 -17 19 -43 14 -46 -8 -72 -35 -58 -60 14 -28 6 -33 -51 -33 -27 0 -62 -7 -77 -15 -26 -13 -30 -13 -42 1 -10 13 -9 16 9 21 21 5 32 33 13 33 -24 0 -41 -14 -41 -35 0 -12 -9 -34 -20 -48 -11 -14 -18 -32 -14 -40 3 -9 -3 -16 -15 -20 -12 -3 -21 -12 -21 -21 0 -12 7 -14 33 -9 17 3 40 10 49 14 9 5 27 9 40 9 13 1 41 9 63 20 22 11 52 19 67 20 15 0 29 4 32 9 3 5 32 12 64 16 32 3 64 10 71 15 16 9 6 30 -15 30 -24 0 -12 35 14 38 12 2 22 9 22 16 0 8 6 19 14 25 16 13 72 -3 80 -24 2 -7 18 -16 35 -20 17 -4 29 -10 26 -15 -8 -14 -62 -19 -96 -10 -38 11 -62 -2 -33 -18 17 -8 171 2 181 12 2 2 5 16 6 32 2 24 -2 29 -23 32 -26 3 -55 14 -102 38 -43 23 -84 17 -122 -16z"/> <path d="M6810 5570 c-11 -7 -12 -12 -3 -21 15 -15 47 -7 51 14 4 19 -23 23 -48 7z"/> <path d="M4331 5520 c-13 -11 -32 -20 -42 -20 -26 0 -69 -29 -69 -45 0 -25 103 -11 143 19 36 28 50 49 40 60 -12 12 -49 5 -72 -14z"/> <path d="M5475 5504 c-8 -20 -15 -40 -15 -45 0 -14 41 -21 55 -9 27 22 13 90 -17 90 -4 0 -15 -16 -23 -36z"/> <path d="M6795 5500 c-8 -13 20 -24 41 -16 20 8 9 26 -16 26 -10 0 -22 -5 -25 -10z"/> <path d="M4430 5485 c0 -8 4 -15 9 -15 5 0 14 7 21 15 10 13 9 15 -9 15 -12 0 -21 -6 -21 -15z"/> <path d="M5562 5437 c-22 -23 -30 -57 -13 -57 5 0 15 7 22 16 7 9 23 20 36 25 13 5 23 15 23 24 0 23 -43 18 -68 -8z"/> <path d="M4555 5416 c-19 -14 -17 -15 33 -16 28 0 52 5 52 10 0 6 -6 10 -12 10 -7 0 -22 3 -33 6 -11 3 -29 -2 -40 -10z"/> <path d="M6899 5426 c-2 -2 -75 -6 -162 -9 -96 -3 -163 -9 -170 -16 -6 -6 -25 -11 -43 -11 -17 0 -51 -7 -74 -15 -23 -8 -61 -15 -84 -15 -23 0 -51 -7 -62 -15 -10 -8 -36 -15 -56 -15 -27 0 -38 -4 -38 -15 0 -18 64 -21 106 -5 15 6 124 20 243 31 214 20 359 21 436 2 87 -21 194 -99 199 -145 1 -14 11 -34 21 -44 15 -16 17 -29 11 -107 -3 -53 -12 -97 -21 -110 -8 -12 -15 -39 -15 -61 0 -41 -23 -115 -47 -151 -7 -11 -13 -27 -13 -37 0 -21 -19 -33 -31 -21 -6 6 -6 26 1 54 6 24 16 69 21 99 6 30 14 59 20 64 5 6 9 69 9 140 -1 147 -5 158 -83 210 -50 34 -61 33 -51 -1 5 -16 8 -64 7 -107 -2 -47 3 -95 11 -120 11 -32 12 -82 7 -235 -7 -190 -7 -194 -31 -213 -14 -11 -35 -28 -47 -38 -12 -11 -51 -33 -87 -49 -60 -29 -96 -40 -191 -61 -55 -12 -191 -12 -240 1 -22 5 -57 15 -79 20 -82 21 -143 58 -185 114 -23 30 -41 58 -41 64 0 5 -6 22 -14 38 -15 31 -28 68 -57 163 -37 119 -20 343 30 393 6 6 11 16 11 22 0 6 21 22 48 35 l47 24 -59 8 c-36 5 -63 14 -71 24 -9 13 -20 15 -46 10 -157 -29 -404 -35 -509 -11 -240 54 -623 75 -825 45 -44 -6 -111 -16 -150 -21 -65 -9 -338 -23 -665 -34 -216 -8 -269 -13 -318 -31 -26 -9 -54 -19 -62 -22 -9 -3 0 -9 25 -17 52 -15 53 -41 3 -67 -50 -26 -48 -38 5 -38 23 -1 152 -3 286 -6 235 -5 245 -6 281 -29 76 -48 120 -116 120 -185 0 -22 7 -57 15 -77 8 -19 15 -44 15 -55 0 -36 42 -158 77 -223 62 -116 126 -184 203 -215 14 -6 34 -14 45 -19 91 -38 131 -43 296 -38 176 6 271 18 295 38 14 12 65 25 134 36 66 10 141 103 236 290 58 115 83 193 109 340 l18 102 45 16 c60 20 175 20 192 0 7 -8 13 -43 14 -78 1 -40 9 -78 22 -107 37 -77 54 -120 54 -132 0 -25 65 -185 88 -218 42 -59 115 -131 152 -149 79 -40 289 -84 365 -78 101 9 268 50 296 74 8 7 21 13 28 13 32 0 211 168 211 198 0 6 6 12 13 15 13 5 34 44 60 112 21 55 97 298 97 311 0 19 58 66 92 73 l33 7 3 88 c2 72 0 92 -14 107 -9 11 -24 19 -33 19 -9 1 -34 8 -56 16 -81 32 -406 70 -426 50z m-1819 -106 c19 -6 91 -14 159 -19 104 -8 132 -14 179 -38 113 -57 155 -129 155 -264 -1 -70 -5 -95 -26 -140 -14 -30 -29 -67 -33 -84 -7 -28 -31 -74 -45 -85 -3 -3 -11 -15 -18 -27 -13 -25 -36 -30 -45 -10 -4 6 -4 -2 -2 -20 6 -40 -23 -102 -77 -160 -75 -82 -181 -119 -367 -131 -134 -9 -293 -1 -325 15 -11 6 -41 21 -67 33 -87 44 -171 139 -216 247 -25 58 -34 102 -48 223 -21 188 -12 270 37 332 35 44 95 78 136 78 15 0 61 7 103 15 196 38 233 43 345 44 66 0 136 -4 155 -9z m2215 -29 c36 -21 42 -44 21 -76 -20 -31 -50 -32 -70 -3 -19 27 -20 52 -4 78 15 24 14 24 53 1z m-3195 -43 c0 -11 -8 -18 -20 -18 -23 0 -25 12 -8 40 13 21 28 10 28 -22z m1930 -33 c0 -22 -28 -75 -39 -75 -5 0 -23 14 -40 31 l-31 30 33 14 c43 19 77 19 77 0z m-1958 -27 c-15 -15 -26 -4 -18 18 5 13 9 15 18 6 9 -9 9 -15 0 -24z m128 -8 c0 -37 -2 -40 -28 -40 -33 0 -52 16 -52 45 0 29 8 35 47 35 32 0 33 -1 33 -40z"/> <path d="M4735 5244 c-38 -7 -78 -18 -87 -24 -10 -5 -25 -10 -34 -10 -16 0 -40 -10 -134 -52 -63 -29 -100 -66 -100 -100 0 -34 5 -35 33 -4 12 13 32 26 45 30 12 4 22 11 22 15 0 7 56 33 98 46 33 10 27 -4 -10 -20 -18 -8 -51 -28 -73 -45 -22 -16 -54 -37 -72 -45 -31 -14 -73 -63 -73 -84 0 -18 85 -13 134 9 25 10 46 24 46 30 0 16 110 130 125 130 19 0 26 -27 19 -71 -10 -58 24 -102 93 -124 73 -23 173 -6 173 29 0 8 7 19 15 26 11 9 15 32 15 81 0 63 2 69 21 69 11 0 44 -22 72 -48 29 -27 67 -57 85 -68 41 -24 36 -38 -15 -42 -27 -2 -48 -11 -63 -27 l-22 -24 35 -6 c20 -4 44 -2 56 4 12 7 50 14 86 18 36 3 65 9 65 13 0 8 -101 80 -113 80 -4 0 -23 18 -43 40 -55 61 -122 101 -158 96 -78 -12 -366 -17 -366 -7 0 6 8 11 18 11 10 0 28 7 40 16 36 25 191 40 269 25 68 -12 185 -60 212 -86 40 -38 148 -115 161 -115 9 0 26 -7 39 -16 33 -24 45 -7 31 44 -12 47 -25 59 -45 42 -20 -17 -68 11 -175 102 -48 39 -67 49 -132 62 -91 19 -196 19 -293 0z m159 -139 c29 -45 13 -73 -26 -42 -21 17 -28 43 -15 56 16 16 23 14 41 -14z m-74 -14 c0 -17 -6 -31 -16 -35 -29 -11 -65 -6 -71 11 -8 21 30 53 63 53 20 0 24 -5 24 -29z m82 -93 c-21 -21 -32 -3 -15 22 16 22 18 23 21 6 2 -10 -1 -23 -6 -28z"/> <path d="M5515 4985 c-4 -11 -18 -31 -31 -45 -15 -17 -26 -44 -30 -75 -4 -28 -13 -58 -22 -67 -20 -24 -22 -93 -2 -93 8 0 16 9 18 20 2 11 7 29 11 40 16 38 31 70 40 85 17 29 33 96 29 125 -4 27 -5 28 -13 10z"/> <path d="M4464 4855 c-8 -21 7 -37 66 -69 118 -64 295 -76 465 -32 55 14 110 26 122 26 12 0 24 4 27 9 3 5 26 18 51 30 51 24 65 59 18 45 -16 -5 -59 -9 -98 -9 -38 0 -72 -3 -75 -6 -3 -3 -36 -16 -75 -30 -115 -39 -292 -26 -411 31 -48 24 -83 26 -90 5z"/> <path d="M4345 5412 c-13 -13 11 -17 89 -14 47 2 86 7 86 10 0 8 -168 11 -175 4z"/> <path d="M4158 5394 c-5 -4 -8 -11 -8 -16 0 -11 102 -10 120 2 12 8 10 10 -10 10 -14 0 -41 3 -60 6 -19 3 -38 2 -42 -2z"/> <path d="M3372 5340 c-17 -28 -16 -30 18 -30 33 0 36 6 16 33 -17 21 -18 21 -34 -3z"/> <path d="M3320 5220 c-11 -7 -6 -10 20 -10 26 0 31 3 20 10 -8 5 -17 10 -20 10 -3 0 -12 -5 -20 -10z"/> <path d="M6590 5201 c-24 -14 -92 -25 -131 -22 -20 1 -56 -6 -80 -17 -24 -10 -59 -25 -77 -33 -18 -8 -35 -21 -37 -30 -3 -9 -17 -22 -30 -29 -33 -18 -32 -48 4 -90 l29 -35 122 -4 c115 -3 123 -2 142 19 25 26 42 91 23 84 -14 -6 -28 22 -19 37 3 5 11 9 19 9 7 0 18 14 24 30 12 36 30 38 90 7 63 -32 71 -49 36 -79 -23 -20 -27 -30 -21 -51 6 -25 11 -27 55 -27 31 0 53 5 61 15 18 22 57 19 63 -5 7 -25 27 -26 27 -1 0 11 -15 28 -35 40 -39 23 -44 37 -17 57 27 21 5 44 -89 92 -80 41 -128 51 -159 33z m-85 -81 c0 -33 -2 -35 -40 -40 -34 -4 -43 -10 -58 -42 -20 -42 -32 -46 -58 -22 -15 14 -18 12 -28 -16 -11 -32 -18 -33 -53 -2 -20 17 -24 57 -7 67 5 4 18 0 28 -9 25 -23 37 -20 51 14 16 38 46 60 81 60 15 0 32 7 39 15 22 27 45 14 45 -25z"/> <path d="M6243 5183 c-13 -8 -23 -19 -23 -24 0 -17 25 -9 49 16 26 28 10 33 -26 8z"/> <path d="M3630 5047 c0 -16 43 -56 130 -122 36 -28 75 -60 86 -73 12 -12 49 -40 81 -61 48 -31 80 -66 163 -177 127 -170 180 -235 245 -298 52 -50 159 -126 177 -126 6 0 19 -7 29 -16 37 -34 314 -42 514 -16 86 11 255 109 255 148 0 19 0 19 -88 -22 -103 -49 -148 -61 -267 -75 -117 -14 -315 -6 -375 15 -62 21 -147 75 -212 135 -63 58 -172 199 -233 301 -21 36 -59 88 -86 115 -26 28 -51 61 -54 75 -6 23 -83 80 -138 102 -9 4 -20 14 -23 22 -3 8 -18 19 -34 26 -16 7 -31 18 -34 25 -3 8 -22 17 -43 20 -21 3 -50 8 -65 10 -18 3 -28 0 -28 -8z"/> <path d="M6150 5047 c0 -8 -9 -22 -20 -32 -19 -17 -27 -64 -13 -78 14 -14 33 17 33 54 0 21 5 41 10 44 6 3 10 10 10 16 0 5 -4 9 -10 9 -5 0 -10 -6 -10 -13z"/> <path d="M2859 4988 c-17 -28 -19 -43 -13 -98 4 -36 6 -99 6 -140 -1 -79 25 -201 44 -207 17 -6 47 149 48 246 1 67 4 86 18 94 21 14 53 -12 62 -49 9 -34 76 -74 126 -74 25 0 40 5 40 13 0 19 -83 120 -131 159 -121 98 -165 111 -200 56z"/> <path d="M4043 4958 c-29 -14 -30 -38 -3 -38 23 0 70 28 70 41 0 12 -40 10 -67 -3z"/> <path d="M6725 4840 c-33 -16 -69 -29 -80 -30 -12 0 -26 -5 -31 -10 -14 -14 -123 -15 -157 -1 -16 6 -39 11 -52 11 -13 0 -54 11 -93 24 -74 25 -102 21 -102 -14 0 -14 7 -20 22 -20 12 0 29 -7 38 -15 11 -10 50 -17 124 -22 59 -3 109 -10 112 -15 7 -10 107 -11 120 0 15 13 97 37 116 34 18 -3 58 50 58 76 0 16 -5 15 -75 -18z"/> <path d="M3180 4685 c-8 -9 -40 -30 -72 -46 -31 -16 -63 -39 -69 -51 -7 -13 -19 -28 -28 -35 -12 -8 -15 -26 -14 -69 2 -47 8 -63 28 -84 l25 -25 0 28 c0 29 24 38 34 12 6 -15 42 -20 70 -9 9 4 25 26 36 49 15 33 24 42 38 38 14 -3 23 6 36 36 18 40 18 40 -7 103 -26 67 -51 84 -77 53z"/> <path d="M7108 4473 c-28 -31 -50 -94 -50 -142 0 -25 -7 -68 -15 -94 -12 -38 -13 -54 -3 -76 10 -24 8 -34 -9 -67 -17 -31 -21 -57 -21 -133 0 -68 -4 -99 -14 -110 -9 -10 -17 -49 -21 -101 -3 -46 -10 -89 -15 -94 -6 -6 -10 -18 -10 -28 0 -10 -4 -26 -9 -36 -13 -25 -31 -108 -31 -142 0 -16 -4 -32 -10 -35 -5 -3 -10 -24 -10 -46 0 -23 -8 -51 -19 -67 -10 -15 -22 -47 -25 -72 -4 -24 -13 -51 -20 -60 -7 -8 -18 -34 -25 -58 -6 -23 -21 -48 -31 -55 -11 -6 -20 -19 -20 -29 0 -9 -12 -37 -27 -62 -20 -32 -35 -45 -50 -46 -16 0 -23 -6 -23 -20 0 -11 -11 -27 -25 -36 -17 -11 -25 -25 -25 -45 0 -44 -19 -75 -57 -93 -26 -12 -33 -21 -28 -35 3 -10 -1 -23 -9 -30 -8 -7 -14 -26 -14 -44 1 -17 -4 -33 -11 -35 -7 -2 -17 -11 -24 -18 -7 -8 -19 -23 -28 -32 -9 -9 -19 -25 -22 -35 -4 -9 -17 -21 -31 -27 -18 -7 -23 -14 -19 -29 3 -12 11 -21 19 -21 7 0 19 -9 27 -21 14 -19 17 -20 45 -5 39 20 52 20 52 0 0 -8 5 -12 10 -9 6 3 10 35 10 69 0 45 4 67 16 76 8 8 22 27 30 44 8 17 26 49 39 71 14 22 30 51 37 65 7 14 31 48 55 77 29 34 43 61 43 80 0 17 8 33 19 40 18 11 101 163 101 185 0 5 9 21 19 36 10 15 22 51 25 81 3 29 13 65 23 80 11 17 17 47 17 87 1 44 6 67 19 81 13 15 17 37 17 88 0 49 4 71 15 79 10 7 19 42 26 101 5 50 15 98 20 108 13 23 30 209 23 245 -4 19 -1 32 10 41 11 9 16 30 16 61 0 48 12 123 32 190 5 19 8 55 6 79 -3 42 -4 43 -20 24z"/> <path d="M6095 4429 c15 -46 71 -159 81 -163 5 -2 22 -2 37 1 44 9 33 41 -38 116 -67 69 -91 83 -80 46z"/> <path d="M3224 4395 c-9 -22 4 -63 29 -96 18 -25 19 -33 9 -49 -17 -28 -15 -48 6 -54 48 -13 82 -17 82 -8 0 21 -33 87 -61 121 -16 20 -31 51 -35 69 -7 34 -21 42 -30 17z"/> <path d="M6290 4296 c0 -21 21 -34 96 -58 60 -19 93 -22 249 -22 174 -1 255 6 255 23 0 9 -138 31 -155 24 -21 -7 -256 15 -326 32 -81 19 -119 19 -119 1z"/> <path d="M3020 4241 c0 -11 110 -122 153 -155 18 -13 42 -27 55 -31 19 -5 22 -3 22 18 0 33 -33 73 -67 82 -15 3 -36 15 -48 26 -25 25 -92 69 -105 69 -6 0 -10 -4 -10 -9z"/> <path d="M5281 4066 c-14 -34 -8 -56 13 -56 22 0 24 11 10 50 l-12 35 -11 -29z"/> <path d="M6210 4029 c0 -27 2 -30 15 -19 11 9 12 17 4 31 -14 27 -19 24 -19 -12z"/> <path d="M6279 4027 c-14 -5 -30 -19 -35 -30 -5 -11 -17 -25 -28 -31 -39 -23 -98 -82 -111 -111 -18 -45 -94 -113 -137 -125 -33 -9 -38 -15 -38 -40 0 -20 -6 -31 -20 -35 -26 -8 -25 -17 5 -45 32 -30 31 -42 -1 -57 -33 -15 -41 -11 -49 27 -6 26 -10 29 -34 24 -20 -4 -36 1 -60 22 -33 28 -37 27 -55 -11 -3 -5 -13 0 -22 13 -9 12 -27 22 -40 22 -29 0 -31 -11 -4 -28 11 -7 20 -23 20 -38 0 -19 -8 -28 -34 -39 -31 -13 -52 -47 -40 -67 9 -14 44 -9 51 8 5 13 48 37 63 35 3 -1 5 -11 5 -23 0 -16 8 -24 30 -29 17 -5 49 -14 73 -21 38 -11 47 -10 77 6 28 15 58 19 152 20 l118 1 3 28 c4 29 -21 39 -32 12 -13 -35 -70 -2 -97 58 -7 15 -18 27 -26 27 -16 0 -17 11 -1 45 14 32 28 32 63 -1 15 -14 29 -23 32 -20 9 8 -8 86 -20 93 -7 5 0 10 18 13 28 5 30 9 27 42 -2 31 2 40 25 55 42 28 89 41 107 31 32 -18 67 76 56 152 -3 23 -13 28 -41 17z m-521 -454 c2 -8 -5 -13 -17 -13 -12 0 -21 6 -21 16 0 18 31 15 38 -3z"/> <path d="M5300 3960 c0 -59 65 -132 147 -165 39 -16 43 -16 81 4 23 11 43 25 47 31 8 14 91 13 118 -2 12 -6 38 -24 59 -41 26 -20 42 -27 57 -22 28 9 26 27 -4 64 -68 80 -230 124 -319 87 -70 -29 -103 -20 -143 40 -19 29 -43 31 -43 4z"/> <path d="M5867 3714 c-4 -4 -7 -18 -7 -31 0 -21 2 -22 21 -13 11 6 19 19 17 27 -3 18 -21 27 -31 17z"/> <path d="M3597 3703 c-4 -3 -7 -17 -7 -30 0 -18 5 -23 25 -23 25 0 51 32 40 50 -7 11 -48 13 -58 3z"/> <path d="M6218 3688 c6 -7 12 -26 14 -42 4 -35 17 -42 43 -21 20 15 19 16 -13 45 -32 30 -65 43 -44 18z"/> <path d="M3686 3624 c-3 -8 -3 -26 0 -40 l6 -24 20 25 c21 27 18 55 -6 55 -7 0 -17 -7 -20 -16z"/> <path d="M4012 3578 c2 -24 8 -43 13 -43 6 0 11 19 13 43 3 33 0 42 -13 42 -13 0 -16 -9 -13 -42z"/> <path d="M5510 3610 c0 -5 10 -10 23 -10 18 0 19 2 7 10 -19 13 -30 13 -30 0z"/> <path d="M5486 3552 c-3 -15 -8 -37 -12 -49 -5 -17 -2 -23 9 -23 8 0 22 -11 31 -25 14 -21 20 -24 37 -14 27 14 22 53 -8 57 -24 4 -30 16 -13 27 18 11 11 31 -14 43 -21 9 -24 8 -30 -16z"/> <path d="M4106 3563 c-12 -12 -6 -33 9 -33 8 0 15 6 15 14 0 17 -14 28 -24 19z"/> <path d="M6200 3556 c0 -16 22 -41 51 -56 10 -6 26 -27 35 -48 l15 -37 19 38 c17 34 24 66 21 91 -1 5 -8 3 -16 -4 -8 -6 -23 -9 -35 -5 -12 4 -27 1 -35 -5 -18 -15 -35 -5 -35 21 0 10 -4 19 -10 19 -5 0 -10 -6 -10 -14z"/> <path d="M5390 3549 c0 -6 -7 -17 -16 -26 -10 -11 -12 -19 -5 -26 7 -7 17 -3 30 14 24 29 27 49 6 49 -8 0 -15 -5 -15 -11z"/> <path d="M5300 3536 c0 -8 5 -18 10 -21 6 -3 10 3 10 14 0 12 -4 21 -10 21 -5 0 -10 -6 -10 -14z"/> <path d="M5427 3483 c-10 -10 -8 -51 2 -58 13 -7 34 33 27 51 -6 15 -18 18 -29 7z"/> <path d="M5334 3455 c-5 -19 -1 -32 16 -50 26 -27 50 -23 26 4 -9 10 -16 27 -16 39 0 31 -18 37 -26 7z"/> <path d="M3762 3458 c6 -18 28 -21 28 -4 0 9 -7 16 -16 16 -9 0 -14 -5 -12 -12z"/> <path d="M4374 3459 c-3 -6 -2 -15 2 -19 12 -12 38 5 30 19 -9 14 -23 14 -32 0z"/> <path d="M5200 3465 c0 -3 4 -13 9 -23 5 -9 12 -25 15 -34 7 -23 32 -23 40 -2 9 23 -20 64 -44 64 -11 0 -20 -2 -20 -5z"/> <path d="M5078 3421 c-7 -12 -18 -21 -24 -21 -7 0 -14 -7 -18 -15 -3 -8 -12 -15 -21 -15 -8 0 -15 -4 -15 -10 0 -5 4 -10 9 -10 5 0 11 -11 13 -25 7 -34 -25 -64 -52 -47 -14 8 -21 8 -26 1 -4 -6 -1 -15 6 -19 21 -13 7 -45 -23 -48 -25 -3 -26 -2 -17 23 14 37 12 55 -5 55 -22 0 -42 -47 -27 -62 6 -6 8 -18 3 -27 -16 -32 -20 -79 -7 -90 14 -12 81 3 91 20 4 5 24 21 45 34 29 18 62 26 136 34 55 6 144 20 199 32 90 19 116 20 260 14 215 -11 222 -11 365 2 128 11 164 9 290 -23 36 -9 96 -17 135 -18 65 -1 70 -3 83 -28 15 -33 37 -36 52 -9 14 27 -4 75 -25 67 -8 -3 -31 5 -50 18 -26 18 -55 26 -113 31 -42 4 -128 13 -190 21 -62 8 -131 14 -152 14 -21 0 -42 5 -45 11 -5 7 -14 5 -30 -5 -23 -15 -55 -17 -239 -17 -91 1 -138 9 -193 34 -15 7 -38 5 -80 -7 -32 -10 -81 -24 -109 -32 -74 -21 -193 -34 -234 -25 -22 4 -30 10 -22 14 6 5 12 25 12 46 0 44 8 55 27 39 17 -14 30 -2 35 32 4 32 -26 39 -44 11z"/> <path d="M4942 3393 c5 -25 28 -28 28 -4 0 12 -6 21 -16 21 -9 0 -14 -7 -12 -17z"/> <path d="M6433 3403 c-10 -3 -10 -9 0 -24 16 -26 39 -25 35 3 -3 22 -15 30 -35 21z"/> <path d="M6517 3374 c4 -12 57 -44 71 -44 3 0 -5 11 -17 24 -26 28 -62 41 -54 20z"/> <path d="M3984 3336 c-8 -21 3 -49 16 -41 5 3 10 15 10 25 0 25 -18 36 -26 16z"/> <path d="M3776 3284 c-11 -28 -6 -54 9 -54 8 0 15 -7 15 -15 0 -8 5 -15 10 -15 6 0 10 6 10 14 0 8 -4 18 -10 21 -5 3 -10 17 -10 30 0 29 -16 41 -24 19z"/> <path d="M4290 3228 c0 -12 1 -19 3 -17 1 2 9 12 16 22 12 14 11 17 -3 17 -10 0 -16 -8 -16 -22z"/> <path d="M3921 3231 c-9 -6 -11 -19 -6 -40 7 -34 19 -40 29 -15 15 40 2 70 -23 55z"/> <path d="M4476 3181 c-18 -20 -19 -62 -1 -62 6 0 12 8 14 18 2 10 9 22 17 26 18 10 18 37 1 37 -8 0 -22 -9 -31 -19z"/> <path d="M3549 3123 c0 -10 0 -158 1 -329 1 -263 -1 -317 -14 -349 -9 -20 -16 -50 -16 -65 0 -27 -55 -120 -71 -120 -5 0 -9 -6 -9 -13 0 -15 -25 -50 -62 -86 -26 -25 -46 -51 -105 -136 -75 -107 -180 -195 -232 -195 -11 0 -23 -4 -26 -10 -3 -5 -13 -10 -21 -10 -8 0 -61 -22 -117 -50 -57 -27 -110 -50 -118 -50 -8 0 -23 -6 -34 -13 -11 -8 -45 -21 -75 -31 -56 -17 -84 -30 -245 -109 -49 -25 -115 -53 -145 -62 -49 -16 -124 -54 -202 -103 -93 -58 -192 -115 -253 -144 -38 -19 -90 -47 -115 -63 -25 -15 -106 -59 -180 -97 -74 -38 -148 -80 -165 -92 -16 -13 -55 -36 -85 -51 -30 -15 -69 -38 -86 -51 -17 -13 -34 -24 -38 -24 -3 0 -25 -14 -48 -30 -22 -17 -45 -30 -50 -30 -5 0 -24 -11 -42 -25 -18 -14 -36 -25 -40 -25 -4 0 -39 -21 -79 -47 -40 -26 -85 -55 -102 -64 -92 -49 -201 -117 -320 -199 -27 -18 -130 -86 -180 -118 -11 -6 -29 -16 -40 -22 -11 -5 -47 -30 -80 -55 -33 -25 -81 -57 -107 -72 -47 -28 -48 -28 -48 -80 0 -29 5 -53 10 -53 6 0 10 4 10 9 0 5 20 21 45 35 25 15 45 31 45 36 0 6 5 10 11 10 6 0 28 13 48 28 20 16 43 32 51 35 8 4 29 16 45 27 17 11 37 23 45 27 8 3 31 18 50 33 19 15 42 30 50 33 8 4 29 16 45 27 17 11 40 25 53 31 12 7 22 15 22 19 0 4 8 10 18 14 9 3 26 11 36 18 11 7 49 32 84 56 35 23 66 42 69 42 5 0 246 146 302 182 14 10 35 22 46 28 11 6 34 19 50 30 17 11 37 23 45 27 8 4 33 19 55 33 73 46 80 50 105 61 13 5 27 13 30 17 3 4 25 17 50 30 25 13 59 32 75 42 17 11 37 23 45 26 8 3 20 8 25 10 6 3 37 20 70 39 33 18 83 46 110 60 28 15 77 42 110 60 33 19 72 39 88 46 15 6 27 15 27 20 0 5 8 9 19 9 10 0 24 7 31 15 7 8 18 15 26 15 12 0 130 76 165 106 8 8 31 14 50 14 19 1 52 12 74 25 22 14 47 27 55 31 93 35 214 97 257 131 23 18 46 33 51 33 5 0 12 7 16 15 3 8 17 15 31 15 14 0 25 4 25 10 0 5 11 12 25 16 13 3 29 12 36 20 6 8 19 14 29 14 10 0 20 7 24 15 3 8 16 15 30 15 13 0 26 7 30 15 3 9 18 15 40 15 21 0 36 6 40 15 7 20 53 19 64 -1 8 -14 24 -2 93 70 102 105 149 160 149 173 0 6 9 18 20 28 11 10 20 23 20 29 0 6 22 33 50 60 28 27 64 77 81 112 31 63 57 81 76 52 4 -7 8 -139 9 -293 3 -389 44 -828 90 -974 13 -42 24 -91 24 -109 0 -30 2 -32 20 -22 19 10 20 18 15 73 -7 70 -23 148 -37 189 -6 15 -12 72 -14 125 -2 54 -6 127 -8 163 -3 36 -8 139 -11 230 -2 91 -9 212 -15 270 -6 58 -15 152 -21 210 -6 58 -12 229 -14 381 -2 157 -9 287 -15 303 -5 15 -10 73 -11 129 -1 56 -4 113 -8 126 -8 30 -31 40 -32 14z"/> <path d="M3960 3090 c0 -11 7 -23 15 -26 8 -4 15 -14 16 -23 0 -9 3 -11 5 -4 5 11 -22 73 -31 73 -3 0 -5 -9 -5 -20z"/> <path d="M4831 3071 c-32 -32 -26 -48 19 -53 52 -5 62 2 58 38 -4 38 -47 45 -77 15z"/> <path d="M6114 3045 c-28 -7 -57 -16 -65 -20 -7 -5 -80 -10 -163 -11 -83 -2 -178 -5 -211 -9 -165 -15 -224 -16 -245 -5 -18 10 -25 9 -39 -4 -14 -15 -14 -18 -1 -26 8 -5 22 -7 30 -5 9 3 19 -4 25 -17 6 -13 23 -26 40 -30 17 -4 57 -17 90 -29 50 -18 71 -20 125 -14 98 12 228 7 271 -10 10 -3 20 -2 24 4 3 6 17 11 29 11 14 0 30 10 40 25 9 14 25 25 36 25 24 0 82 39 114 77 43 51 7 64 -100 38z"/> <path d="M4180 2940 c0 -5 6 -10 14 -10 7 0 19 -7 26 -15 7 -8 17 -12 22 -9 13 9 -22 44 -44 44 -10 0 -18 -4 -18 -10z"/> <path d="M4401 2859 c-35 -32 -37 -49 -2 -27 18 11 22 10 35 -7 14 -19 15 -19 21 7 8 29 1 58 -12 58 -5 0 -24 -14 -42 -31z"/> <path d="M4230 2845 c0 -20 5 -25 25 -25 27 0 33 18 13 38 -20 20 -38 14 -38 -13z"/> <path d="M3993 2840 c-19 -30 -16 -46 12 -58 30 -14 39 -2 33 45 -4 34 -28 41 -45 13z"/> <path d="M4335 2801 c-3 -5 -1 -12 5 -16 12 -7 30 2 30 16 0 12 -27 12 -35 0z"/> <path d="M4450 2771 c0 -29 23 -43 45 -27 16 12 17 16 6 30 -19 22 -51 21 -51 -3z"/> <path d="M4815 2770 c-8 -12 17 -23 41 -18 10 1 19 9 22 16 5 15 -54 17 -63 2z"/> <path d="M4575 2750 c-23 -26 -8 -47 19 -27 14 10 16 18 9 31 -8 15 -11 15 -28 -4z"/> <path d="M4104 2719 c-3 -6 -2 -15 2 -19 12 -12 38 5 30 19 -9 14 -23 14 -32 0z"/> <path d="M6070 2620 c0 -19 20 -49 39 -59 17 -10 18 -8 6 27 -12 34 -45 58 -45 32z"/> <path d="M4747 2602 c-10 -10 -14 -22 -10 -25 7 -8 43 21 43 35 0 14 -16 9 -33 -10z"/> <path d="M5820 2586 c0 -7 14 -12 35 -12 21 0 35 5 35 12 0 7 -14 12 -35 12 -21 0 -35 -5 -35 -12z"/> <path d="M6200 2596 c0 -8 61 -95 70 -101 13 -8 22 13 15 35 -3 11 -17 23 -30 26 -13 3 -25 14 -28 25 -4 16 -27 28 -27 15z"/> <path d="M5072 2531 c2 -7 7 -12 11 -12 12 1 9 15 -3 20 -7 2 -11 -2 -8 -8z"/> <path d="M4796 2511 c-15 -16 -15 -20 -1 -31 12 -10 16 -9 22 6 4 11 14 24 22 31 14 11 13 12 -5 13 -11 0 -28 -8 -38 -19z"/> <path d="M5632 2508 c5 -32 28 -35 28 -4 0 17 -5 26 -16 26 -10 0 -14 -7 -12 -22z"/> <path d="M5418 2495 c-9 -21 -9 -29 4 -42 15 -14 18 -13 33 11 10 14 15 33 11 41 -9 23 -35 18 -48 -10z"/> <path d="M5964 2495 c-5 -12 -1 -22 11 -31 38 -28 49 -8 15 28 -18 20 -20 20 -26 3z"/> <path d="M4732 2473 c4 -37 25 -40 30 -3 4 24 1 30 -14 30 -15 0 -19 -6 -16 -27z"/> <path d="M5176 2472 c-8 -14 6 -53 18 -49 18 6 20 57 2 57 -8 0 -17 -4 -20 -8z"/> <path d="M5314 2435 c-8 -21 3 -34 25 -28 13 3 23 -2 30 -16 7 -12 19 -21 27 -21 8 0 20 -13 25 -30 13 -35 19 -36 48 -12 l21 17 -27 38 -27 38 -18 -23 -18 -23 -20 25 c-11 14 -20 31 -20 38 0 17 -39 15 -46 -3z"/> <path d="M6147 2444 c-8 -8 3 -34 14 -34 5 0 9 9 9 20 0 19 -11 26 -23 14z"/> <path d="M5542 2424 c4 -21 22 -23 26 -1 2 10 -3 17 -13 17 -10 0 -15 -6 -13 -16z"/> <path d="M5840 2419 c0 -12 -8 -23 -20 -26 -11 -3 -20 -14 -20 -23 0 -21 87 -97 98 -86 4 4 -1 13 -10 20 -24 18 -42 66 -28 80 16 16 12 56 -5 56 -9 0 -15 -9 -15 -21z"/> <path d="M5900 2405 c0 -14 5 -25 10 -25 6 0 10 11 10 25 0 14 -4 25 -10 25 -5 0 -10 -11 -10 -25z"/> <path d="M6311 2411 c-7 -5 -15 -28 -18 -53 -4 -36 -11 -47 -35 -61 -26 -15 -30 -22 -24 -47 3 -18 1 -34 -7 -40 -71 -58 -77 -61 -141 -67 -55 -5 -67 -3 -72 11 -11 27 -23 18 -26 -21 -3 -35 -6 -38 -43 -45 -22 -5 -69 -7 -105 -6 -61 3 -65 5 -68 28 -4 24 -4 24 -17 -7 -17 -41 -80 -63 -101 -35 -13 16 -14 15 -20 -6 -5 -19 -11 -22 -34 -17 -35 8 -49 -19 -19 -36 40 -21 286 12 304 41 3 5 26 9 50 8 25 0 51 5 59 11 11 9 20 9 34 2 21 -11 58 -4 107 23 17 9 37 16 46 16 8 0 25 11 37 25 12 14 26 25 30 25 4 0 21 21 37 46 16 25 41 52 57 60 43 22 53 49 29 83 -12 17 -18 36 -14 49 4 17 1 22 -13 22 -11 0 -25 -4 -33 -9z"/> <path d="M4843 2394 c-31 -13 1 -54 42 -54 25 0 16 54 -10 57 -11 1 -26 -1 -32 -3z"/> <path d="M5657 2384 c-3 -3 -1 -17 5 -30 13 -28 48 -33 48 -6 0 30 -35 54 -53 36z"/> <path d="M4991 2334 c-11 -8 -21 -26 -21 -39 0 -30 -36 -42 -83 -28 -25 7 -33 15 -35 36 -3 28 -32 39 -32 12 0 -8 -6 -15 -13 -15 -11 0 -43 -39 -35 -44 13 -7 77 -26 90 -26 9 0 30 -12 48 -26 21 -18 38 -25 56 -21 13 2 27 0 30 -5 11 -18 93 -50 113 -43 24 7 26 23 9 60 -11 26 -32 33 -43 15 -12 -19 -41 -10 -62 18 l-21 28 24 21 c43 39 21 89 -25 57z"/> <path d="M5270 2278 c1 -58 2 -62 16 -43 18 24 15 96 -3 103 -10 3 -13 -13 -13 -60z"/> <path d="M5575 2307 c-5 -23 -14 -37 -26 -40 -28 -7 -23 -33 9 -56 26 -18 30 -18 44 -5 12 12 13 26 7 66 -11 66 -26 82 -34 35z"/> <path d="M5924 2325 c-3 -8 -3 -19 1 -25 11 -18 25 -11 25 15 0 27 -17 34 -26 10z"/> <path d="M6493 2291 c-15 -57 -1 -379 18 -429 6 -15 8 -51 5 -82 -5 -44 -2 -63 13 -92 30 -54 44 -191 35 -350 -7 -137 2 -328 15 -328 15 0 40 91 31 114 -10 29 -18 282 -8 292 18 17 70 -20 96 -69 15 -27 33 -60 40 -73 7 -12 20 -60 29 -105 15 -77 15 -84 -2 -134 -15 -45 -16 -61 -6 -99 14 -56 14 -159 0 -208 -5 -21 -12 -38 -15 -38 -34 0 -86 74 -94 135 -3 26 -10 40 -20 40 -21 0 -20 -90 2 -180 10 -38 18 -88 18 -109 0 -42 -36 -127 -82 -191 -16 -22 -42 -59 -58 -82 -62 -88 -104 -36 -109 135 -1 34 -20 43 -40 18 -6 -7 -13 -68 -16 -141 l-5 -127 -46 -54 c-25 -30 -50 -54 -55 -54 -5 0 -9 -4 -9 -10 0 -13 35 -13 58 -1 9 5 24 12 32 16 53 21 136 87 221 173 83 85 139 154 139 171 0 6 4 11 9 11 5 0 14 12 20 28 6 15 15 34 20 42 14 23 41 87 41 98 0 5 7 23 15 38 8 16 15 38 15 49 0 12 4 25 10 31 5 5 14 37 20 69 33 198 33 203 22 287 -16 123 -28 178 -40 190 -7 7 -12 20 -12 30 0 21 -60 136 -96 185 -13 17 -24 34 -24 37 0 2 -20 34 -44 69 -24 35 -47 73 -50 84 -4 12 -13 24 -21 27 -11 4 -14 24 -14 83 1 43 -4 91 -10 107 -6 16 -14 120 -18 232 -3 112 -9 204 -13 204 -4 0 -12 -18 -17 -39z"/> <path d="M5428 2275 c-3 -14 -1 -25 3 -25 5 0 9 11 9 25 0 14 -2 25 -4 25 -2 0 -6 -11 -8 -25z"/> <path d="M5790 2281 c0 -6 4 -12 9 -15 5 -3 12 -22 15 -41 6 -32 40 -65 53 -52 6 7 -59 117 -69 117 -5 0 -8 -4 -8 -9z"/> <path d="M5711 2267 c-13 -16 -5 -27 21 -27 21 0 23 13 4 29 -10 8 -16 8 -25 -2z"/> <path d="M6130 2230 c0 -13 5 -18 15 -14 12 5 13 10 4 20 -15 19 -19 18 -19 -6z"/> <path d="M5170 2165 c0 -14 -7 -28 -15 -31 -17 -7 -20 -35 -5 -50 8 -8 23 -8 49 -1 32 9 42 8 56 -6 20 -21 75 -23 75 -3 0 7 -15 19 -32 26 -72 26 -78 30 -78 48 0 21 -18 42 -37 42 -7 0 -13 -11 -13 -25z"/> <path d="M5460 2160 c0 -23 4 -30 20 -30 20 0 20 1 5 30 -9 17 -18 30 -20 30 -3 0 -5 -13 -5 -30z"/> <path d="M5396 2052 c-3 -6 -1 -14 5 -17 15 -10 25 3 12 16 -7 7 -13 7 -17 1z"/> <path d="M5446 2045 c-4 -11 1 -15 19 -15 28 0 33 15 9 24 -21 8 -21 8 -28 -9z"/> <path d="M5506 2031 c-9 -15 18 -31 34 -20 13 8 13 10 0 19 -19 12 -27 12 -34 1z"/> <path d="M6670 1750 c0 -5 7 -10 15 -10 9 0 18 -7 21 -15 4 -8 10 -15 15 -15 9 0 67 -37 79 -51 13 -14 112 -69 135 -75 22 -6 185 -86 655 -326 85 -44 162 -83 170 -88 8 -5 42 -21 75 -35 33 -15 94 -43 135 -62 41 -20 90 -42 107 -50 86 -36 110 -47 135 -60 14 -7 33 -13 41 -13 9 0 28 -6 44 -14 15 -8 46 -22 68 -32 22 -9 52 -23 67 -31 14 -7 33 -13 41 -13 9 0 28 -6 44 -14 45 -23 100 -46 111 -46 6 0 25 -8 44 -17 18 -9 45 -22 60 -30 14 -7 33 -13 41 -13 8 0 39 -13 70 -30 31 -16 63 -30 71 -30 7 0 19 -7 26 -15 7 -8 23 -15 36 -15 22 0 24 4 24 50 0 45 -2 50 -22 50 -13 0 -36 7 -52 15 -15 8 -36 15 -45 15 -10 0 -26 7 -37 15 -10 8 -29 15 -41 15 -11 0 -52 14 -90 31 -37 17 -120 50 -183 74 -63 24 -160 61 -215 83 -55 22 -136 55 -180 72 -44 18 -84 36 -90 41 -5 5 -16 9 -26 9 -9 0 -27 8 -40 18 -13 10 -40 24 -59 32 -19 7 -72 30 -118 51 -45 22 -86 39 -90 39 -4 0 -27 14 -51 30 -25 17 -56 33 -70 36 -24 6 -238 104 -271 125 -23 14 -199 98 -255 121 -62 26 -194 91 -260 128 -112 64 -135 72 -135 50z"/> <path d="M3040 1740 c0 -5 -7 -10 -14 -10 -19 0 -108 -47 -121 -63 -5 -7 -28 -24 -50 -37 -22 -13 -42 -27 -45 -31 -3 -4 -18 -11 -33 -14 -15 -4 -27 -11 -27 -16 0 -5 -11 -9 -24 -9 -30 0 -69 -47 -63 -75 7 -29 28 -88 38 -105 5 -8 12 -22 15 -30 12 -31 15 -36 34 -65 11 -16 23 -36 26 -43 4 -8 20 -28 35 -45 16 -17 29 -37 29 -45 0 -7 7 -15 15 -18 8 -4 15 -12 15 -20 0 -8 4 -14 8 -14 5 0 30 -29 56 -65 41 -57 88 -106 259 -270 23 -22 74 -65 112 -95 39 -30 75 -60 80 -66 16 -17 92 -74 99 -74 4 0 12 -5 19 -10 48 -41 62 -50 74 -50 7 0 13 -4 13 -9 0 -5 10 -13 22 -17 12 -3 28 -13 36 -20 7 -8 19 -14 26 -14 8 0 19 -7 26 -15 7 -8 21 -15 30 -15 10 0 20 -4 22 -8 4 -11 86 -52 103 -52 8 0 15 -4 15 -10 0 -5 16 -12 35 -16 19 -3 39 -12 46 -20 6 -8 18 -14 25 -14 8 0 22 -4 32 -10 40 -22 112 -50 129 -50 11 0 23 -4 29 -8 12 -11 135 -52 156 -52 9 0 29 -7 44 -15 16 -8 39 -15 51 -15 12 0 24 -4 28 -10 3 -5 33 -12 66 -16 32 -4 62 -10 64 -15 3 -4 30 -11 60 -14 31 -4 58 -11 61 -16 7 -12 84 -11 84 1 0 5 -18 14 -40 20 -21 6 -42 15 -45 20 -3 6 -23 10 -44 10 -21 0 -44 6 -50 14 -6 7 -32 16 -57 19 -24 2 -53 12 -64 22 -12 11 -26 14 -40 10 -13 -4 -28 -1 -38 7 -24 20 -155 64 -229 76 -73 13 -220 76 -312 134 -25 15 -51 28 -59 28 -8 0 -31 13 -51 29 -33 26 -52 33 -123 48 -16 3 -28 9 -28 13 0 5 -10 12 -22 16 -13 4 -45 26 -73 50 -27 24 -54 44 -60 44 -6 0 -22 13 -35 30 -14 16 -28 29 -32 30 -4 0 -31 22 -60 49 -29 27 -71 63 -92 81 -63 49 -128 112 -171 166 -22 27 -47 56 -55 65 -40 42 -150 184 -150 194 0 8 -43 69 -52 73 -5 2 -8 12 -8 22 0 9 -7 23 -15 30 -8 7 -15 20 -15 29 0 10 -7 26 -15 37 -18 24 -19 65 -2 85 15 19 93 79 101 79 8 0 57 34 106 73 41 33 44 35 92 67 42 28 48 40 18 40 -11 0 -20 -4 -20 -10z"/> <path d="M5547 1543 c-4 -3 -7 -10 -7 -14 0 -9 53 -39 70 -39 21 0 9 26 -19 43 -33 19 -35 20 -44 10z"/> <path d="M5640 1457 c0 -24 37 -67 58 -67 21 0 13 31 -15 61 -34 35 -43 36 -43 6z"/> <path d="M5740 1345 c-13 -16 -8 -26 35 -71 25 -26 75 -40 75 -21 0 17 -20 37 -37 37 -21 0 -53 38 -47 55 8 19 -10 20 -26 0z"/> <path d="M2482 938 c6 -18 28 -21 28 -4 0 9 -7 16 -16 16 -9 0 -14 -5 -12 -12z"/> <path d="M2510 904 c0 -20 61 -104 76 -104 4 0 13 -8 20 -17 7 -10 16 -14 21 -10 4 5 0 14 -10 21 -9 7 -17 16 -17 19 0 3 -13 21 -30 39 -16 18 -30 38 -30 45 0 7 -7 13 -15 13 -8 0 -15 -3 -15 -6z"/> <path d="M2630 742 c0 -4 14 -22 30 -40 17 -18 30 -35 30 -37 0 -5 130 -135 135 -135 2 0 19 -15 37 -33 18 -18 54 -48 81 -66 26 -19 47 -38 47 -43 0 -4 4 -8 9 -8 6 0 25 -13 43 -30 18 -16 36 -30 40 -30 4 0 22 -14 40 -30 18 -17 36 -30 41 -30 5 0 26 -13 47 -30 21 -17 45 -30 53 -30 9 0 20 -6 24 -12 9 -15 37 -33 71 -48 12 -5 22 -14 22 -20 0 -5 8 -10 19 -10 10 0 24 -7 31 -15 7 -8 18 -15 25 -15 7 0 15 -7 19 -15 7 -20 46 -20 46 0 0 9 -9 15 -24 15 -13 0 -26 7 -30 15 -3 8 -12 15 -20 15 -7 0 -16 7 -20 15 -3 8 -14 15 -25 15 -10 0 -21 7 -25 15 -3 8 -14 15 -25 15 -10 0 -21 7 -25 15 -3 8 -12 15 -20 15 -7 0 -16 7 -20 15 -3 8 -15 15 -26 15 -11 0 -20 5 -20 10 0 6 -11 15 -25 20 -14 5 -25 14 -25 20 0 5 -9 10 -19 10 -10 0 -21 7 -25 15 -3 8 -12 15 -20 15 -7 0 -16 7 -20 15 -3 8 -12 15 -19 15 -8 0 -35 20 -61 45 -57 53 -121 105 -131 105 -4 0 -63 56 -131 125 -119 121 -134 134 -134 117z"/> <path d="M7205 707 c-4 -10 -5 -21 -1 -24 10 -10 18 4 13 24 -4 17 -4 17 -12 0z"/> <path d="M5900 618 c-7 -16 -19 -28 -26 -28 -6 0 -21 -19 -32 -42 -18 -35 -19 -44 -8 -60 16 -23 22 -17 31 36 5 25 14 40 26 43 20 6 35 42 26 65 -3 8 -9 2 -17 -14z"/> <path d="M7170 534 c0 -14 4 -23 10 -19 6 3 10 15 10 26 0 10 -4 19 -10 19 -5 0 -10 -12 -10 -26z"/> <path d="M6380 515 c0 -8 5 -15 10 -15 6 0 10 7 10 15 0 8 -4 15 -10 15 -5 0 -10 -7 -10 -15z"/> <path d="M6111 436 c-45 -71 -63 -131 -86 -286 -8 -58 -18 -115 -21 -127 -6 -22 -3 -23 44 -23 48 0 51 1 61 33 13 42 28 127 36 202 3 32 13 83 21 113 12 40 13 60 5 83 -5 16 -8 36 -5 43 3 8 1 17 -4 20 -5 3 -28 -23 -51 -58z"/> <path d="M5786 430 c-37 -41 -42 -55 -27 -78 12 -19 34 11 27 36 -5 16 0 21 24 25 21 5 30 12 30 26 0 35 -17 32 -54 -9z"/> <path d="M7137 463 c-3 -5 -2 -15 2 -22 7 -10 10 -10 16 -1 4 6 3 16 -3 22 -5 5 -12 6 -15 1z"/> <path d="M7104 375 c-3 -13 -12 -29 -20 -36 -8 -6 -14 -20 -14 -30 0 -11 -4 -19 -10 -19 -5 0 -10 -10 -10 -21 0 -21 1 -21 25 5 14 15 25 38 25 52 0 15 6 24 15 24 9 0 15 9 15 25 0 32 -18 32 -26 0z"/> <path d="M7020 223 c0 -5 -13 -21 -28 -38 -15 -16 -45 -52 -67 -80 -22 -27 -53 -62 -70 -77 -16 -16 -24 -28 -16 -28 7 0 26 13 42 30 17 16 38 35 48 42 23 17 111 134 111 147 0 6 -4 11 -10 11 -5 0 -10 -3 -10 -7z"/> <path d="M3532 38 c3 -7 15 -15 27 -16 16 -3 22 1 19 10 -3 7 -15 15 -27 16 -16 3 -22 -1 -19 -10z"/> <path d="M3590 10 c0 -5 12 -10 26 -10 14 0 23 4 19 10 -3 6 -15 10 -26 10 -10 0 -19 -4 -19 -10z"/> </g> </svg> 