<?xml version="1.0" standalone="no"?>
<!DOCTYPE svg PUBLIC "-//W3C//DTD SVG 20010904//EN"
 "http://www.w3.org/TR/2001/REC-SVG-20010904/DTD/svg10.dtd">
<svg version="1.0" xmlns="http://www.w3.org/2000/svg"
 width="300.000000pt" height="300.000000pt" viewBox="0 0 300.000000 300.000000"
 preserveAspectRatio="xMidYMid meet">
<metadata>
Created by potrace 1.10, written by Peter Selinger 2001-2011
</metadata>
<g transform="translate(0.000000,300.000000) scale(0.050000,-0.050000)"
fill="#ffffff" stroke="none">
<path d="M3240 5854 c-82 -11 -157 -30 -165 -42 -10 -15 -21 -13 -35 8 -13 20
-19 22 -20 5 0 -14 -13 -25 -29 -25 -17 0 -78 -22 -137 -49 -59 -27 -156 -67
-216 -90 -149 -55 -582 -513 -692 -731 -17 -33 -44 -75 -59 -93 -16 -18 -30
-54 -31 -80 -1 -26 -14 -93 -29 -149 -72 -265 -70 -475 9 -778 62 -236 67
-418 12 -426 -63 -9 -97 -92 -98 -236 0 -70 -7 -128 -16 -128 -9 0 4 -29 29
-64 24 -35 32 -56 16 -46 -19 11 -16 3 6 -23 19 -22 29 -46 23 -53 -7 -7 2
-27 20 -44 17 -18 32 -49 32 -69 0 -20 14 -48 31 -62 43 -36 85 -124 74 -155
-12 -33 35 -88 65 -77 13 5 38 -7 55 -27 25 -29 55 -35 148 -30 l117 6 55
-113 c30 -62 55 -124 55 -138 0 -14 8 -41 18 -60 9 -19 27 -57 38 -85 73 -177
121 -249 279 -410 128 -131 218 -204 335 -268 385 -212 575 -332 668 -422 55
-53 113 -104 128 -113 48 -29 55 -112 13 -164 -21 -25 -47 -40 -58 -33 -19 11
-43 -9 -158 -137 -59 -66 -108 -59 -201 30 -69 66 -198 139 -172 97 7 -11 1
-20 -14 -21 -16 0 -12 -8 9 -21 20 -11 30 -29 23 -40 -25 -42 56 -98 142 -98
72 0 87 -8 109 -55 13 -30 18 -48 10 -40 -9 8 -30 -5 -47 -30 -34 -49 -48
-101 -22 -85 9 5 21 -3 27 -18 6 -17 -7 -34 -33 -42 -70 -23 -83 -24 -109 -4
-35 26 -85 -20 -85 -78 0 -61 156 -72 203 -14 23 29 23 31 -3 16 -26 -15 -26
-13 -3 16 31 37 84 44 114 16 82 -80 330 278 380 549 8 38 21 69 29 69 9 0 19
35 23 78 4 43 2 75 -6 70 -28 -17 -30 44 -2 86 41 63 11 100 -38 47 -22 -23
-34 -49 -28 -59 6 -10 -2 -28 -18 -41 -24 -20 -32 -15 -42 27 -7 29 -22 52
-33 52 -11 0 -15 13 -9 30 7 16 2 30 -9 30 -11 0 -14 10 -6 23 9 14 5 18 -9 9
-23 -15 -90 35 -71 53 5 5 -16 6 -46 1 -41 -7 -48 -4 -28 11 22 15 11 24 -50
41 -120 32 -141 85 -50 125 69 31 333 83 407 81 19 -1 35 7 35 17 0 11 9 19
21 19 12 0 53 31 93 70 77 75 115 76 87 1 -36 -94 -15 -357 32 -404 50 -50 71
-772 22 -762 -13 3 -24 -6 -24 -18 -4 -103 -32 -21 -33 100 -3 182 -4 186 -23
205 -18 18 -95 -67 -95 -106 0 -15 -13 -32 -30 -39 -16 -6 -25 -19 -19 -29 6
-10 3 -18 -7 -18 -35 0 -124 -255 -124 -356 0 -108 85 -44 110 82 22 110 79
210 86 150 2 -14 7 -48 11 -76 4 -27 0 -70 -9 -95 -46 -124 211 76 286 223
134 262 125 457 -34 714 -72 117 -73 124 -84 375 l-12 256 90 139 c112 173
169 295 187 398 8 44 21 94 29 110 9 17 30 120 48 230 18 110 42 251 54 313
32 160 14 184 -53 74 l-56 -93 -122 8 c-271 18 -332 30 -387 79 l-54 49 70
-28 c308 -124 581 0 678 307 28 86 60 149 83 162 117 62 18 199 -144 199 -71
0 -73 33 -18 324 21 113 45 276 52 362 13 146 19 161 90 233 80 81 134 214
111 274 -12 31 -17 32 -35 6 -16 -22 -17 -20 -6 11 59 156 12 357 -115 490
-102 106 -223 211 -173 150 17 -22 28 -50 24 -61 -4 -12 10 -38 33 -59 49 -44
53 -19 5 38 -23 29 -16 26 22 -8 99 -87 212 -320 155 -320 -12 0 -22 14 -22
31 0 38 -58 178 -69 167 -4 -5 5 -65 21 -135 16 -69 25 -162 20 -206 -7 -67
-4 -76 20 -56 43 36 36 -13 -14 -94 -54 -87 -110 -125 -163 -111 -41 10 -42
11 -4 28 28 12 23 14 -21 6 -134 -23 -200 -29 -154 -15 26 8 48 24 50 35 2 10
16 21 30 23 46 7 81 48 116 139 18 48 41 88 50 88 22 0 -20 -119 -66 -185
l-39 -55 59 0 c70 0 98 29 107 110 5 44 -1 58 -23 54 -22 -5 -20 3 7 33 20 22
32 56 27 77 -8 33 -10 33 -12 1 -1 -19 -11 -35 -21 -35 -11 0 -15 26 -8 59 22
109 -11 239 -81 318 -36 40 -85 107 -111 149 -25 42 -50 71 -56 66 -6 -6 1
-25 14 -41 14 -17 20 -45 13 -62 -6 -17 -4 -26 6 -20 23 14 102 -197 102 -272
0 -76 -55 -183 -84 -165 -13 9 -17 5 -8 -8 7 -13 -11 -50 -41 -83 -63 -71
-101 -81 -58 -16 44 69 96 200 72 186 -28 -17 -27 -9 9 76 17 39 29 101 28
137 l-2 66 -18 -79 c-25 -105 -36 -111 -35 -18 1 308 -283 623 -538 596 -116
-13 -128 -18 -85 -34 160 -62 200 -86 300 -181 331 -315 354 -504 100 -851
-80 -110 -105 -92 -30 21 31 47 57 96 57 110 0 13 5 21 11 17 7 -4 15 55 18
130 6 157 -16 222 -134 396 -44 65 -75 124 -68 131 7 6 2 12 -12 12 -14 0 -53
21 -88 47 -98 74 -172 109 -137 66 42 -50 1 -38 -67 20 -33 28 -44 46 -25 40
54 -18 42 3 -20 34 -30 16 -93 29 -139 29 -46 1 -102 11 -124 23 -46 24 -132
23 -342 -5z m705 -253 c194 -177 328 -497 296 -705 -14 -91 -57 -187 -75 -168
-6 6 -30 1 -54 -10 l-42 -20 42 37 c100 87 132 312 63 435 l-33 60 -3 -70 c-2
-62 -6 -57 -30 45 -45 186 -253 495 -333 495 -9 0 15 -28 54 -63 264 -232 344
-673 167 -922 -67 -94 -71 -62 -14 110 55 167 71 346 37 425 -12 27 -18 31
-19 10 -2 -16 -26 24 -54 90 -28 66 -57 125 -65 130 -7 6 -28 34 -46 63 -42
65 -153 136 -286 182 l-100 34 95 -12 c96 -12 116 3 70 51 -68 71 234 -109
330 -197z m271 191 c65 -34 150 -123 183 -192 17 -35 1 -25 -52 34 -42 46
-122 106 -177 134 -75 38 -89 50 -54 51 25 1 70 -12 100 -27z m-837 -5 c39 -8
55 -18 40 -27 -15 -10 20 -39 94 -78 154 -82 388 -305 387 -369 0 -13 -9 -9
-20 7 -22 34 -26 19 -8 -28 7 -18 19 -27 28 -22 38 24 65 -396 28 -445 -13
-19 -19 -44 -14 -58 10 -26 -88 -100 -107 -81 -6 7 3 27 21 45 54 54 70 99 64
181 -3 43 1 87 10 98 8 11 8 52 0 90 -14 66 -15 63 -28 -52 -7 -67 -18 -139
-25 -160 -11 -31 -9 -33 9 -8 12 17 22 20 22 8 0 -11 -22 -42 -50 -68 -59 -55
-60 -52 -19 62 86 241 -6 590 -161 611 -11 1 -27 5 -35 7 -8 3 -24 6 -34 8
-11 1 -60 36 -109 77 -60 50 -94 67 -104 52 -8 -14 -5 -18 7 -10 34 21 256
-233 290 -330 42 -126 21 -365 -41 -452 -72 -100 -78 -60 -8 50 16 25 24 63
18 85 -6 22 -2 35 8 29 10 -6 18 3 18 20 0 17 -11 31 -25 31 -16 1 -18 6 -5
15 12 8 16 47 10 85 -11 68 -12 67 -24 -30 -26 -203 -110 -375 -195 -401 -49
-14 -49 -14 6 33 107 92 168 448 104 603 -34 81 -163 202 -195 182 -13 -8 -16
-4 -8 10 36 58 -243 111 -387 73 -55 -14 -101 -20 -101 -13 0 7 -7 4 -15 -8
-21 -30 -198 -129 -210 -118 -5 6 -21 -4 -35 -21 -21 -25 -21 -29 2 -22 83 26
159 30 146 8 -10 -15 -3 -18 20 -9 20 7 53 13 74 13 21 0 38 14 38 30 0 94
409 21 528 -94 l82 -80 -98 72 c-101 74 -156 95 -112 42 22 -26 15 -26 -53 1
l-77 32 60 -53 c33 -29 49 -47 35 -40 -43 21 -27 -12 24 -52 68 -54 171 -269
170 -356 0 -69 -3 -67 -67 68 -57 118 -153 250 -182 250 -4 0 22 -45 59 -101
36 -56 77 -143 90 -195 13 -52 31 -107 39 -124 18 -37 6 -100 -19 -100 -11 0
-19 29 -20 65 -1 89 -68 266 -98 260 -13 -4 -18 4 -11 16 51 81 -244 301 -361
270 -36 -10 -47 -19 -29 -25 150 -44 200 -74 249 -149 30 -44 51 -83 47 -86
-9 -9 -131 127 -122 136 14 14 -153 73 -205 73 -56 0 -219 -76 -202 -94 6 -6
48 8 93 32 45 23 101 41 126 41 l44 -2 -46 -18 c-96 -39 -143 -82 -74 -68 35
7 89 -1 130 -19 39 -17 59 -31 46 -31 -13 -1 -47 9 -74 22 -37 17 -71 16 -136
-2 -47 -13 -105 -27 -129 -30 -54 -9 -128 -50 -91 -50 15 -1 21 -10 14 -21
-15 -25 -6 -25 58 -1 239 91 480 59 602 -81 l40 -46 -60 41 c-33 23 -82 52
-110 65 -42 19 -44 19 -11 -3 91 -60 170 -149 181 -205 l12 -60 -30 52 c-74
128 -566 230 -680 141 -12 -10 -74 -15 -138 -13 -129 6 -279 -71 -326 -167
-41 -83 -75 -102 -59 -33 7 33 26 70 42 82 16 12 29 29 29 37 0 30 95 95 240
163 149 70 288 179 268 211 -6 9 2 17 17 17 42 0 103 51 88 75 -8 13 -85 -16
-206 -78 -228 -118 -290 -107 -124 22 59 46 122 96 140 111 19 15 39 21 45 15
7 -6 12 -2 12 10 0 12 56 67 125 123 69 57 136 112 150 123 14 11 25 13 25 3
0 -9 -41 -47 -91 -83 -50 -36 -87 -70 -81 -76 6 -5 48 18 94 52 46 34 92 57
101 51 15 -9 25 18 20 55 -1 7 81 10 183 7 226 -8 274 -14 274 -35 0 -10 10
-11 22 -4 30 19 1 42 -82 67 -63 19 -64 21 -10 14 33 -5 81 -15 108 -23 78
-25 41 37 -40 65 -74 26 -40 33 61 13z m747 -267 c46 -67 50 -80 17 -52 -60
53 -54 32 25 -85 37 -55 84 -144 103 -197 20 -53 42 -105 49 -116 8 -11 3 -60
-11 -110 -29 -105 -29 -104 -35 40 -5 118 -107 364 -209 500 -43 58 -45 63 -9
32 24 -21 44 -29 44 -18 0 25 -70 89 -83 76 -6 -6 -28 9 -49 33 -21 24 -27 37
-13 29 14 -8 25 -4 25 10 0 36 74 -37 146 -142z m-476 -51 c11 0 18 -12 14
-26 -3 -15 18 -53 45 -86 28 -33 51 -73 51 -89 0 -15 8 -28 19 -28 123 0 -24
-510 -157 -545 -55 -15 -53 4 6 67 88 95 116 176 116 328 0 147 -11 179 -116
337 -28 43 -39 70 -25 61 15 -10 36 -18 47 -19z m-251 -274 c24 -41 37 -75 28
-75 -10 0 -42 47 -72 105 -60 113 -29 92 44 -30z m1372 -89 c15 -116 -114
-325 -226 -368 -74 -28 -77 -8 -6 44 34 26 58 58 52 72 -5 14 1 23 14 21 13
-3 24 4 26 15 6 48 35 89 54 77 13 -8 15 -3 6 12 -9 14 -6 31 5 39 24 15 33
161 16 252 l-12 60 29 -60 c15 -33 34 -107 42 -164z m-2351 92 c-38 -23 -88
-59 -110 -79 -54 -49 -197 -109 -186 -78 4 13 79 63 167 111 162 89 256 122
129 46z m40 -246 c0 -4 -29 -25 -65 -47 -38 -22 -67 -56 -69 -80 l-3 -42 73
42 c89 51 108 67 54 46 -92 -36 -114 -31 -33 7 48 23 94 38 102 32 9 -5 67 4
129 20 186 49 409 15 461 -68 18 -29 3 -28 -79 7 -49 20 -73 22 -83 7 -7 -12
-5 -17 6 -10 26 16 73 -16 79 -54 4 -26 -8 -25 -73 9 -118 60 -387 38 -297
-24 20 -14 16 -16 -14 -8 -70 20 -362 -135 -446 -236 -14 -18 -33 -28 -42 -23
-9 5 -28 -6 -43 -25 -24 -31 -23 -32 6 -9 64 50 63 -17 -1 -80 -34 -33 -62
-73 -62 -88 0 -16 -11 -28 -23 -28 -13 0 -19 -5 -13 -10 5 -6 34 2 63 17 29
15 47 33 39 40 -7 7 14 13 47 13 33 0 77 13 98 29 46 35 32 39 -39 12 -40 -15
-48 -14 -39 8 5 16 34 37 64 47 29 11 73 36 97 57 25 20 81 59 125 86 44 27
77 51 74 55 -10 10 -181 -77 -223 -114 -22 -19 -62 -42 -90 -51 -83 -25 128
126 256 183 63 28 145 65 183 82 87 40 253 61 234 30 -8 -12 -61 -35 -120 -52
-58 -17 -136 -54 -174 -81 -38 -28 -115 -82 -171 -120 -57 -38 -109 -84 -116
-103 -9 -24 6 -19 52 19 37 29 95 66 131 82 36 16 65 36 65 45 0 15 174 86
210 86 8 0 4 -13 -10 -30 -13 -16 -32 -25 -41 -19 -9 5 -37 -17 -62 -50 -24
-34 -56 -61 -71 -61 -14 0 -26 -9 -26 -20 0 -11 -8 -20 -18 -20 -10 0 -46 -26
-80 -59 -35 -32 -90 -64 -122 -71 -32 -7 -91 -35 -131 -62 -39 -27 -66 -39
-59 -28 7 12 -8 11 -39 -3 -28 -13 -51 -33 -51 -46 0 -12 -16 -37 -35 -55 -60
-57 -87 -96 -67 -96 11 0 26 10 33 22 10 16 19 14 31 -5 14 -22 17 -21 18 5 0
36 87 124 105 106 7 -7 44 7 82 30 61 38 70 39 81 10 8 -21 -1 -35 -28 -42
-22 -6 -40 -22 -40 -36 0 -14 -13 -36 -30 -50 -16 -14 -30 -43 -30 -65 0 -27
-10 -36 -30 -28 -19 8 -40 -9 -60 -47 -35 -68 -38 -87 -10 -70 29 18 24 -25
-12 -101 -17 -37 -28 -79 -22 -93 5 -14 15 -2 23 28 10 36 27 52 53 50 44 -3
47 -19 13 -75 -21 -35 -20 -44 10 -61 20 -11 54 -40 77 -64 l41 -44 -107 -10
c-111 -10 -143 6 -124 64 13 43 -27 121 -54 105 -11 -7 -14 -32 -8 -56 9 -31
7 -35 -7 -15 -10 16 -17 71 -14 124 2 53 -2 92 -10 88 -7 -5 -15 47 -16 115
-2 89 -12 132 -35 149 -33 24 -22 106 15 106 10 0 15 7 10 15 -13 21 49 152
96 203 28 32 30 42 9 42 -30 0 -53 -31 -122 -162 -64 -124 -66 -76 -4 84 44
113 74 156 132 196 82 57 94 82 41 83 -31 0 -31 4 5 30 22 17 40 39 40 49 0
11 23 34 50 53 28 18 82 62 120 98 39 36 88 70 110 75 22 5 42 10 45 12 3 1 5
-2 5 -6z m2509 -237 c-20 -66 -67 -135 -93 -135 -13 0 -9 14 9 35 18 19 38 60
46 90 7 30 22 55 33 55 10 0 13 -20 5 -45z m-476 -139 c104 -148 141 -290 153
-586 5 -143 16 -276 24 -295 10 -25 5 -35 -18 -35 -18 0 -32 9 -32 20 0 34
-98 85 -135 70 -19 -8 -82 -17 -140 -19 -58 -2 -116 -14 -129 -27 -13 -13 -43
-24 -66 -24 -48 0 -136 -73 -120 -100 15 -25 -192 -47 -290 -30 -79 13 -82 16
-39 37 55 28 82 86 31 66 -19 -7 -29 -4 -23 6 7 10 1 25 -11 32 -13 8 -32 0
-42 -18 -25 -45 -50 -41 -122 19 -52 44 -77 50 -172 45 -62 -3 -122 0 -133 7
-12 8 -47 1 -78 -15 -69 -36 -72 -36 -58 1 14 36 -102 44 -124 8 -8 -12 -46
-35 -85 -52 -52 -22 -64 -34 -43 -46 15 -10 37 -12 48 -6 14 8 14 5 1 -9 -11
-12 -38 -26 -60 -31 -22 -5 -4 -6 40 -2 263 23 532 28 610 12 76 -16 57 -19
-120 -17 -115 2 -349 -8 -520 -22 -555 -45 -544 -44 -519 -14 12 14 33 23 46
17 13 -5 46 34 73 86 28 52 71 126 96 164 41 62 42 72 14 82 -29 10 -28 17 9
64 59 76 51 85 -26 27 -80 -61 -102 -65 -69 -12 13 21 33 33 43 27 11 -7 13
-2 4 12 -8 13 -2 38 12 56 15 18 24 33 20 34 -21 6 49 113 80 123 21 7 67 48
102 93 100 125 339 320 380 309 19 -5 35 -1 35 9 0 10 9 18 19 18 11 0 15 -12
9 -27 -7 -19 7 -26 50 -23 33 2 56 -3 51 -12 -13 -20 47 -35 121 -29 33 3 103
-7 155 -20 52 -14 91 -18 85 -9 -20 32 55 40 79 9 19 -27 50 -31 172 -22 90 6
133 3 109 -7 -35 -15 -36 -17 -4 -19 20 0 63 13 97 31 33 17 79 35 101 39 23
4 69 30 103 58 86 68 129 57 206 -53z m256 -31 c51 -10 54 -14 20 -26 -22 -8
-63 -2 -94 14 -61 31 -76 59 -20 38 19 -8 62 -19 94 -26z m-2259 -361 c-66
-63 -145 -154 -175 -201 -31 -46 -65 -79 -76 -73 -10 7 -28 -8 -38 -34 -10
-25 -19 -32 -19 -16 -1 17 30 66 68 110 39 44 67 89 63 100 -7 21 244 230 277
230 10 0 -35 -52 -100 -116z m-170 -432 c0 -4 -13 -33 -30 -65 -21 -40 -30
-46 -30 -21 0 20 -9 31 -20 24 -11 -7 -20 -3 -20 9 0 11 14 21 30 21 17 0 30
9 30 20 0 11 9 20 20 20 11 0 20 -3 20 -8z m730 -72 c-7 -11 -1 -20 12 -20 46
0 2 -23 -65 -33 l-66 -11 49 41 c53 44 91 56 70 23z m1703 -154 c77 -50 80
-274 6 -386 -14 -21 -16 -12 -5 30 35 132 20 292 -30 326 l-47 31 14 -222 c14
-218 14 -222 -36 -272 -164 -164 -547 -96 -561 99 -4 65 -24 62 247 37 l152
-14 64 81 c95 120 18 244 -152 244 -31 0 -66 9 -78 21 -32 32 -178 -24 -174
-67 1 -19 -9 -34 -23 -34 -14 0 -38 -29 -52 -65 l-25 -65 -8 53 c-11 78 44
194 99 207 213 51 528 49 609 -4z m-1156 -12 c80 -27 123 -92 120 -184 -1 -33
-6 -44 -11 -25 -14 55 -57 -1 -73 -96 -13 -77 -13 -78 16 -29 16 28 30 39 30
25 1 -14 -18 -44 -40 -66 -23 -23 -45 -59 -49 -80 -28 -147 -390 -221 -552
-114 -135 90 -215 409 -131 524 59 82 492 110 690 45z m859 -175 c-3 -42 0
-71 9 -66 8 5 15 0 15 -10 0 -50 -154 -61 -293 -20 -85 25 -87 28 -68 117 1 6
15 -6 30 -26 50 -67 215 -40 238 39 26 93 79 67 69 -34z m-2387 59 c143 -40
186 -129 202 -420 15 -269 21 -323 40 -422 31 -162 -143 -155 -184 8 -12 49
-53 130 -91 180 -143 187 -223 473 -169 602 34 82 65 90 202 52z m690 -13 c28
-23 54 -82 73 -169 70 -305 289 -419 638 -331 49 13 46 8 -20 -24 -239 -119
-499 -36 -655 210 -45 71 -90 129 -99 129 -30 0 -16 65 19 92 33 25 32 27 -6
27 -23 1 -50 9 -60 19 -20 18 -229 50 -229 35 0 -5 59 -57 130 -115 72 -58
178 -168 235 -243 190 -250 456 -331 685 -211 110 58 271 332 300 511 11 68
23 88 62 97 79 20 96 0 144 -165 25 -86 63 -215 84 -287 l39 -130 86 -4 c47
-3 172 -6 279 -8 l193 -2 -18 -48 c-10 -27 -13 -48 -6 -48 7 0 1 -13 -13 -30
-14 -16 -20 -30 -13 -30 6 0 -2 -31 -18 -68 -15 -38 -30 -99 -32 -135 -2 -37
-15 -81 -29 -97 -15 -18 -23 -68 -20 -117 4 -56 0 -77 -11 -60 -13 18 -17 8
-13 -33 6 -59 -53 -148 -79 -121 -20 19 -21 191 -2 179 32 -20 17 25 -24 68
-23 25 -36 52 -31 61 6 9 -3 16 -19 16 -16 0 -29 -7 -29 -16 0 -9 -14 -17 -31
-17 -17 0 -26 8 -20 19 7 10 -2 26 -18 35 -24 14 -27 43 -14 161 15 141 7 193
-29 184 -10 -3 -29 17 -43 43 l-24 48 -1 -56 c0 -109 -98 -254 -171 -254 -27
0 -48 -15 -54 -38 -8 -28 -25 -36 -72 -30 -34 4 -68 -3 -75 -16 -9 -13 -5 -17
9 -8 13 8 23 6 23 -5 0 -31 -65 -46 -88 -21 -16 18 -15 20 6 8 20 -12 24 -9
12 10 -13 20 -22 18 -43 -11 -15 -20 -33 -30 -40 -23 -7 8 -27 2 -44 -11 -26
-21 -28 -19 -17 15 13 37 12 37 -13 5 -15 -19 -43 -35 -62 -35 -19 0 -60 -18
-91 -40 -39 -28 -59 -33 -64 -17 -5 15 -23 19 -47 9 -37 -14 -38 -15 -2 -35
35 -20 35 -22 -4 -49 -22 -15 -46 -57 -54 -93 -7 -36 -23 -76 -34 -90 -11 -14
-13 -25 -4 -25 9 0 -1 -13 -22 -29 -36 -28 -37 -30 -3 -30 24 -1 31 -10 21
-26 -10 -17 -4 -16 19 2 19 16 34 40 34 55 0 16 9 28 20 28 11 0 20 13 20 30
0 113 701 201 875 109 127 -66 -72 -123 -398 -114 -198 6 -211 4 -190 -29 91
-146 523 -111 634 52 27 39 60 72 73 72 35 0 109 -84 98 -112 -5 -13 1 -33 14
-46 16 -16 15 -22 -3 -22 -16 0 -21 -14 -14 -38 8 -23 1 -42 -18 -49 -17 -6
-31 -26 -31 -44 0 -17 -9 -26 -20 -19 -11 7 -20 -7 -20 -31 0 -37 -5 -40 -30
-19 -24 20 -30 20 -30 0 0 -15 -16 -20 -42 -14 -30 8 -38 3 -30 -17 6 -17 -1
-29 -19 -29 -16 0 -29 -17 -29 -39 0 -55 35 -70 50 -21 7 22 21 40 31 40 31 0
22 -31 -20 -69 -21 -19 -34 -49 -28 -68 9 -27 7 -28 -10 -4 -11 16 -15 38 -9
48 7 11 2 13 -11 5 -13 -8 -23 -31 -23 -52 0 -46 -33 -70 -47 -35 -7 18 -21
13 -47 -15 -20 -22 -34 -37 -32 -33 2 4 -11 22 -29 40 -30 31 -29 33 12 39 39
6 43 15 31 80 -15 81 -28 109 -28 58 0 -21 -13 -29 -42 -24 -36 7 -41 1 -33
-41 12 -61 -17 -85 -35 -29 -7 22 -27 40 -44 40 -22 0 -25 -7 -11 -25 35 -46
43 -115 13 -115 -16 0 -28 20 -28 49 0 27 -9 54 -20 61 -11 7 -20 -2 -20 -20
0 -18 -9 -27 -20 -20 -11 7 -20 -1 -20 -18 0 -16 9 -35 20 -42 27 -16 26 -70
-1 -70 -12 0 -16 8 -10 18 6 9 -2 28 -17 40 -21 18 -30 13 -42 -23 -12 -38
-16 -40 -24 -10 -5 19 -22 35 -37 35 -19 0 -30 23 -32 65 -2 47 -5 53 -11 20
-5 -25 -23 -45 -40 -45 -18 0 -26 11 -19 29 6 17 3 35 -8 42 -10 6 -19 -2 -19
-19 0 -19 -11 -26 -30 -19 -16 6 -25 19 -19 29 6 10 -7 18 -29 18 -22 0 -45 9
-52 20 -7 11 -34 20 -60 20 -26 0 -54 10 -62 23 -8 14 -5 18 7 10 11 -7 26 1
32 17 13 34 -3 38 -45 12 -15 -10 -22 -32 -16 -50 14 -36 11 -37 -34 -20 -18
7 -26 21 -20 31 7 11 0 18 -15 16 -54 -7 -77 2 -77 31 0 31 -2 32 -72 40 -57
6 -91 29 -77 51 6 10 0 38 -12 62 -21 37 -19 41 11 30 19 -8 50 -3 68 11 17
14 25 17 17 7 -19 -22 24 -74 49 -59 10 7 30 -3 43 -21 22 -30 25 -30 27 8 2
23 -4 37 -13 32 -9 -6 -22 3 -29 20 -6 18 -21 26 -32 19 -11 -7 -20 1 -20 18
0 16 -11 36 -25 44 -14 8 -19 7 -11 -1 8 -9 1 -29 -16 -45 -34 -34 -88 -4 -88
49 0 21 -13 26 -43 18 -58 -15 -117 19 -117 67 0 20 -9 43 -20 50 -11 7 -20
29 -20 49 0 26 -11 34 -35 28 -41 -10 -87 73 -72 130 6 22 -2 42 -20 49 -19 7
-26 27 -19 53 6 22 2 41 -8 41 -11 0 -30 23 -42 50 -13 28 -15 50 -6 50 10 0
4 38 -12 85 -46 131 -50 163 -58 490 l-8 305 178 0 c139 0 187 -8 221 -35z
m825 -1125 c11 0 15 14 8 31 -6 18 -3 26 8 19 43 -27 16 -66 -57 -85 -76 -19
-78 -18 -78 33 1 28 5 41 10 27 13 -39 39 -30 55 20 l15 45 9 -45 c5 -25 18
-45 30 -45z m394 45 c84 -5 179 -10 212 -11 55 -3 89 -25 90 -57 0 -17 -418
-7 -545 13 -91 15 -116 34 -77 59 10 6 22 1 27 -13 5 -17 21 -14 55 9 25 19
55 28 66 21 11 -7 89 -16 172 -21z m-723 -851 c14 5 25 0 25 -12 0 -12 7 -21
15 -20 40 7 66 -4 55 -22 -7 -11 2 -14 21 -7 18 7 39 4 46 -7 7 -11 30 -29 50
-40 34 -18 34 -21 4 -33 -18 -7 -28 -5 -22 5 5 9 -14 17 -43 17 -29 0 -64 15
-77 33 -13 17 -43 32 -66 32 -24 0 -43 9 -43 20 0 11 -13 20 -30 20 -16 0 -30
15 -30 33 0 30 3 30 35 3 19 -17 46 -27 60 -22z"/>
<path d="M2579 5411 c-121 -45 -227 -105 -269 -153 -37 -42 -35 -42 30 6 39
28 102 62 140 74 79 27 220 101 190 100 -11 -1 -52 -13 -91 -27z"/>
<path d="M2379 4771 c-51 -27 -105 -64 -120 -84 -20 -24 2 -18 71 22 197 113
232 157 49 62z"/>
<path d="M1952 4171 c-36 -56 -43 -100 -12 -81 30 19 84 130 63 130 -10 0 -33
-22 -51 -49z"/>
<path d="M3117 3493 c-100 -28 -197 -83 -197 -112 0 -10 -5 -32 -12 -49 -10
-26 2 -32 60 -32 47 0 72 9 72 27 0 64 76 101 84 40 13 -115 179 -115 192 0 8
63 26 67 74 13 27 -30 30 -46 13 -66 -12 -15 -18 -32 -12 -38 49 -49 -188 -83
-302 -45 -102 35 -134 26 -84 -24 66 -66 326 -68 450 -4 54 28 59 57 10 58
-33 0 -33 1 0 21 19 11 44 15 55 8 28 -18 25 17 -5 48 -21 22 -17 23 19 4 61
-31 66 -29 66 29 0 30 -14 55 -35 61 -19 6 -60 25 -91 41 -77 42 -247 52 -357
20z"/>
<path d="M1913 3347 c-17 -18 -13 -203 6 -267 14 -49 61 52 61 134 0 17 18 14
59 -10 117 -67 93 41 -26 114 -75 46 -80 48 -100 29z"/>
<path d="M2062 3088 c-97 -81 -72 -177 40 -155 51 11 56 5 69 -61 8 -42 25
-72 41 -72 33 0 37 32 7 51 -39 24 -59 107 -39 160 43 112 -25 156 -118 77z"/>
<path d="M2069 2783 c32 -35 71 -63 87 -63 41 0 4 40 -79 88 l-67 38 59 -63z"/>
<path d="M3535 2747 c-54 -84 48 -214 172 -220 45 -2 108 -10 138 -18 43 -11
55 -7 55 18 0 51 -91 97 -215 111 -108 11 -115 15 -125 72 -6 35 -17 51 -25
37z"/>
<path d="M2865 2367 c-14 -6 -25 -19 -25 -30 0 -11 8 -14 18 -8 10 6 31 -16
45 -49 15 -33 33 -60 40 -60 7 0 19 -32 26 -71 12 -67 51 -80 51 -17 0 18 -10
24 -23 16 -16 -10 -20 -1 -13 26 6 22 2 56 -9 76 -14 25 -12 40 8 52 21 14 22
17 1 18 -15 0 -21 9 -14 20 7 11 -1 14 -19 8 -17 -7 -31 -23 -31 -35 0 -13 -9
-10 -19 6 -10 16 -14 36 -8 45 10 17 9 18 -28 3z"/>
<path d="M3595 1658 c-19 -11 -44 -15 -55 -8 -11 7 -14 -1 -8 -18 6 -17 29
-36 50 -43 22 -6 38 -30 38 -54 0 -42 1 -42 28 -4 18 25 22 47 10 61 -10 13
-13 38 -6 55 14 37 -6 41 -57 11z"/>
<path d="M4381 5390 c0 -11 13 -42 29 -70 16 -27 29 -90 31 -140 1 -81 4 -85
22 -40 25 64 6 165 -43 224 -21 25 -39 37 -39 26z"/>
<path d="M2352 2155 c-6 -19 -18 -51 -25 -70 -26 -75 -41 -186 -25 -196 9 -6
13 -21 8 -35 -4 -13 -12 -73 -17 -134 -11 -130 -41 -217 -82 -232 -16 -7 -35
-30 -42 -52 -9 -28 -25 -37 -53 -29 -30 8 -36 3 -27 -23 7 -18 7 -26 -1 -18
-8 8 -36 -5 -62 -29 -27 -26 -73 -45 -114 -46 -37 0 -64 -7 -59 -15 4 -8 -28
-25 -72 -38 -44 -13 -76 -30 -71 -38 4 -7 -12 -11 -36 -9 -24 2 -53 -3 -64
-11 -11 -8 -63 -30 -115 -50 -52 -19 -95 -44 -95 -54 0 -10 -8 -14 -17 -8 -9
6 -45 -12 -79 -40 -33 -28 -67 -50 -73 -49 -7 1 -27 -12 -44 -29 -18 -18 -45
-28 -60 -22 -15 6 -38 -6 -51 -28 -19 -29 -31 -33 -51 -16 -21 17 -26 16 -21
-6 3 -15 -5 -26 -19 -23 -14 3 -25 -5 -25 -16 0 -12 -9 -16 -20 -9 -11 7 -20
3 -20 -7 0 -17 -59 -46 -100 -50 -11 -1 -46 -27 -102 -79 -22 -19 -47 -31 -55
-26 -9 6 -30 -5 -48 -24 -53 -56 -92 -84 -117 -84 -14 0 -19 -6 -12 -13 15
-15 -77 -67 -117 -67 -15 0 -34 -12 -43 -26 -9 -14 -48 -41 -88 -59 -39 -19
-88 -56 -109 -83 -20 -27 -57 -55 -83 -61 -40 -10 -46 -24 -46 -113 0 -108 -1
-108 110 -27 116 84 783 487 1050 633 149 82 288 158 310 170 22 12 99 50 170
84 72 34 189 93 260 131 72 39 140 67 152 62 35 -12 151 93 228 206 94 138 94
137 109 -132 21 -405 45 -605 102 -862 8 -34 4 -42 -15 -30 -14 9 -36 16 -49
16 -13 1 -59 34 -103 75 -44 40 -85 68 -92 61 -7 -6 -12 4 -12 24 0 24 -10 31
-31 23 -19 -7 -26 -3 -18 10 9 14 -1 19 -24 15 -109 -22 -338 365 -252 426 87
62 169 139 159 150 -6 6 -52 -17 -101 -51 -50 -34 -103 -62 -119 -62 -159 0
128 -428 450 -670 203 -152 533 -291 856 -360 69 -15 70 -15 34 26 -44 48 -10
82 40 41 29 -24 30 -23 7 14 -15 24 -44 40 -69 38 -43 -4 -152 49 -152 73 0
36 -103 80 -131 57 -16 -13 -29 -17 -29 -9 0 8 -12 5 -26 -6 -15 -13 -37 -15
-54 -4 -15 9 -36 13 -45 7 -30 -19 -75 36 -75 91 0 30 -11 65 -24 78 -13 13
-17 24 -9 24 8 0 5 17 -6 39 -13 24 -14 43 -2 50 27 17 3 71 -26 60 -14 -6
-24 12 -25 46 -2 65 -25 278 -36 335 -4 22 -13 94 -21 160 -7 66 -17 134 -21
150 -25 89 -35 179 -52 460 -18 320 -42 461 -66 395z"/>
<path d="M4509 1191 l-57 -23 69 -43 c167 -103 837 -427 1128 -545 175 -72
326 -133 335 -137 9 -3 16 45 16 108 0 104 -3 113 -40 103 -22 -6 -45 -2 -51
8 -6 10 -29 18 -50 18 -22 0 -39 9 -39 19 0 11 -15 14 -33 7 -22 -8 -29 -5
-20 9 8 12 3 29 -10 37 -14 9 -18 6 -9 -9 29 -47 -168 14 -235 73 -22 18 -33
23 -25 9 9 -16 4 -21 -17 -13 -17 7 -25 22 -18 33 8 13 -6 17 -40 11 -34 -7
-53 -2 -53 14 0 14 -33 30 -72 37 -40 6 -90 26 -110 45 -20 18 -62 36 -91 39
-71 8 -208 70 -197 90 9 14 -64 46 -96 41 -8 -1 -20 11 -27 28 -6 16 -24 30
-40 30 -16 0 -24 -8 -18 -18 6 -10 -7 -14 -29 -8 -22 6 -40 18 -40 26 0 28
-73 35 -131 11z"/>
<path d="M1642 657 c50 -70 54 -63 -83 -163 -38 -27 -40 -31 -7 -15 24 11 47
15 53 10 5 -6 25 13 44 42 l34 52 111 -122 c154 -171 555 -462 635 -461 11 0
-15 21 -59 46 -299 171 -566 399 -680 579 -33 52 -67 95 -76 95 -9 0 3 -28 28
-63z"/>
<path d="M3325 695 c5 -14 -6 -37 -23 -51 -28 -23 -27 -24 9 -7 26 13 52 13
76 0 32 -18 33 -16 10 21 -30 47 -85 76 -72 37z"/>
<path d="M4810 650 c7 -32 14 -64 15 -70 18 -87 -93 -362 -202 -500 l-71 -90
72 67 c39 36 93 108 118 160 26 51 56 99 66 106 21 15 34 78 34 161 0 30 8 60
19 66 11 7 13 -3 5 -24 -12 -31 -9 -32 19 -10 37 31 24 92 -17 76 -15 -6 -22
0 -17 15 6 13 -4 42 -22 64 -30 37 -31 36 -19 -21z"/>
<path d="M1375 418 c-87 -44 -90 -50 -33 -64 23 -6 37 -6 31 0 -7 6 10 28 36
49 53 42 80 48 59 14 -9 -15 -5 -18 9 -9 80 50 -8 58 -102 10z"/>
</g>
</svg>
