<?xml version="1.0" standalone="no"?>
<!DOCTYPE svg PUBLIC "-//W3C//DTD SVG 20010904//EN"
 "http://www.w3.org/TR/2001/REC-SVG-20010904/DTD/svg10.dtd">
<svg version="1.0" xmlns="http://www.w3.org/2000/svg"
 width="900.000000pt" height="900.000000pt" viewBox="0 0 900.000000 900.000000"
 preserveAspectRatio="xMidYMid meet">
<metadata>
Created by potrace 1.10, written by Peter Selinger 2001-2011
</metadata>
<g transform="translate(0.000000,900.000000) scale(0.100000,-0.100000)"
fill="#ffffff" stroke="none">
<path d="M0 4529 l0 -4470 48 33 c26 18 49 35 52 38 10 10 161 110 166 110 4
0 36 20 73 44 36 24 107 69 156 101 50 31 108 70 130 85 22 14 148 91 280 170
132 79 269 163 304 187 36 24 68 43 73 43 4 0 38 19 75 42 38 23 104 60 148
83 44 23 106 56 138 74 31 17 81 44 110 60 28 15 79 43 112 61 33 18 92 50
130 70 39 20 109 62 156 93 47 31 96 57 109 57 13 0 64 20 114 44 50 24 123
59 161 77 39 18 97 49 130 69 88 53 309 160 330 160 10 0 26 7 36 16 10 9 25
14 34 11 22 -9 19 -27 -5 -27 -11 0 -20 -4 -20 -9 0 -5 -29 -23 -65 -40 -35
-17 -69 -40 -75 -51 -6 -11 -17 -20 -25 -20 -8 0 -15 -4 -15 -10 0 -5 -11 -12
-25 -16 -14 -3 -25 -10 -25 -15 0 -5 -8 -9 -18 -9 -10 0 -27 -7 -38 -15 -10
-8 -25 -15 -32 -15 -17 0 -51 -40 -51 -60 0 -8 6 -24 14 -34 8 -11 15 -30 15
-43 0 -13 5 -23 10 -23 6 0 10 17 10 39 0 34 6 43 48 77 26 21 49 41 52 44 6
6 44 33 140 98 41 27 89 63 107 79 18 15 58 48 90 73 110 86 301 287 343 360
48 85 75 50 85 -109 24 -404 57 -426 46 -31 -3 118 -5 251 -5 295 0 44 -4 258
-9 475 -7 274 -7 404 0 425 10 27 11 28 18 10 5 -11 13 -27 20 -35 7 -8 15
-30 19 -49 3 -19 12 -42 20 -50 7 -9 21 -39 30 -68 10 -28 24 -57 32 -63 7 -7
14 -19 14 -28 0 -26 88 -210 130 -271 42 -62 199 -233 374 -406 100 -99 197
-181 262 -220 133 -80 231 -135 360 -200 82 -41 185 -99 229 -129 44 -31 100
-65 125 -77 163 -79 391 -281 444 -394 15 -33 32 -67 36 -77 5 -9 12 -50 16
-90 5 -57 3 -83 -9 -109 -8 -19 -25 -60 -36 -93 -47 -129 -128 -221 -224 -252
-53 -17 -97 -48 -97 -69 0 -7 -9 -20 -20 -30 -11 -10 -20 -26 -20 -35 0 -9 -4
-20 -8 -26 -5 -5 -17 -36 -26 -69 -10 -33 -26 -76 -37 -96 -10 -20 -16 -39
-13 -42 3 -3 0 -16 -7 -29 -7 -12 -15 -29 -19 -37 -3 -8 -34 -23 -67 -34 -52
-16 -62 -23 -75 -55 -9 -21 -16 -52 -16 -69 l-1 -33 123 0 c113 0 124 2 142
21 37 42 97 73 136 70 42 -3 89 17 163 67 84 58 178 171 298 362 87 138 97
150 128 150 24 0 26 -3 23 -37 -5 -58 -22 -187 -39 -282 -8 -47 -19 -135 -25
-196 -6 -60 -14 -120 -17 -133 -5 -21 -2 -22 46 -22 60 0 61 1 92 145 23 102
52 171 80 186 25 13 68 -20 98 -76 12 -22 32 -54 45 -72 l23 -31 28 18 c20 13
29 28 30 47 5 124 4 121 36 151 29 27 33 28 67 17 20 -7 39 -21 43 -31 7 -17
8 -17 8 -1 1 9 7 17 14 17 28 0 105 107 137 193 12 28 25 61 29 72 13 29 41
120 51 168 5 23 13 60 19 82 6 22 11 88 11 146 0 177 -44 313 -158 488 -48 74
-60 93 -68 111 -4 8 -12 22 -19 30 -15 18 -27 90 -16 90 5 0 14 -7 21 -15 7
-8 18 -15 25 -15 14 0 62 -26 178 -97 46 -29 90 -53 96 -53 6 0 19 -4 29 -9 9
-5 49 -24 87 -41 39 -17 232 -112 430 -210 409 -202 460 -226 675 -315 63 -26
129 -53 145 -60 17 -7 50 -21 75 -30 25 -10 59 -23 75 -30 17 -7 50 -21 75
-30 25 -10 59 -24 77 -31 17 -8 36 -14 41 -14 6 0 25 -8 44 -17 18 -9 45 -22
60 -30 14 -7 35 -13 45 -13 10 0 23 -4 29 -9 10 -10 173 -81 186 -81 4 0 8
1879 8 4175 l0 4175 -4500 0 -4500 0 0 -4471z m5771 3863 c15 -15 25 -31 22
-38 -2 -6 3 -17 12 -24 8 -7 15 -21 15 -30 0 -10 5 -20 12 -22 7 -3 9 -11 4
-24 -8 -18 -9 -18 -19 4 -5 12 -14 22 -19 22 -4 0 -8 6 -8 14 0 8 -6 21 -13
28 -6 7 -23 30 -37 50 -14 21 -51 57 -82 79 -32 23 -55 46 -52 50 5 9 126 -70
165 -109z m-669 -20 c90 -49 190 -140 182 -164 -3 -10 -1 -18 5 -18 6 0 11 5
11 12 0 9 3 8 13 -1 10 -11 10 -14 0 -18 -15 -5 -17 -35 -4 -48 5 -6 13 -28
17 -50 l7 -40 -21 19 c-12 10 -24 28 -28 40 -11 37 -88 146 -106 152 -10 3
-18 12 -18 20 0 8 -6 14 -12 14 -7 0 -30 15 -51 33 -21 17 -49 41 -62 52 -14
11 -25 23 -25 28 0 14 26 5 92 -31z m288 -2 c6 -11 17 -17 24 -14 15 6 56 -28
56 -45 0 -13 -92 27 -107 47 -13 15 -9 32 7 32 5 0 14 -9 20 -20z m-895 -240
c3 -5 17 -10 30 -10 13 0 30 -7 38 -15 8 -7 26 -17 41 -21 14 -3 26 -10 26
-15 0 -4 12 -14 27 -21 14 -7 28 -18 30 -25 2 -6 -48 14 -111 45 -64 31 -116
60 -116 65 0 11 28 9 35 -3z m-205 -739 c0 -6 -54 -11 -120 -13 -119 -3 -168
8 -67 15 111 7 187 7 187 -2z m500 -514 c0 -4 12 -7 28 -6 15 1 63 -10 107
-26 52 -18 98 -27 132 -26 28 1 54 -3 58 -9 3 -5 28 -10 55 -10 28 0 69 -4 92
-10 171 -38 258 -48 353 -41 64 5 196 -9 243 -26 34 -12 66 -14 145 -9 134 9
249 25 265 38 7 6 43 9 87 6 69 -5 77 -8 117 -43 28 -25 52 -60 68 -99 14 -34
31 -71 38 -83 7 -12 12 -47 12 -78 0 -31 5 -66 12 -78 7 -12 12 -38 12 -57 1
-28 6 -37 29 -48 27 -13 28 -16 23 -68 -4 -43 -2 -56 10 -61 29 -11 51 -74 43
-125 -7 -45 -4 -53 41 -135 81 -144 77 -168 -36 -203 -34 -10 -71 -23 -81 -28
-17 -9 -144 -32 -297 -53 -39 -5 -76 -15 -84 -21 -14 -12 -101 -51 -157 -70
-16 -6 -37 -15 -45 -19 -8 -5 -26 -14 -39 -19 -37 -16 -85 -60 -97 -90 -9 -22
-26 -32 -81 -50 -63 -20 -76 -22 -133 -12 -35 7 -68 16 -72 20 -5 5 -1 22 9
40 23 41 10 83 -32 97 -17 6 -46 21 -65 33 -43 27 -55 27 -87 3 -22 -18 -53
-19 -53 -1 0 4 -20 8 -44 8 -31 1 -59 11 -96 34 l-53 33 -136 -1 c-75 -1 -174
-3 -221 -6 -47 -3 -92 -2 -102 3 -17 9 -81 -12 -93 -31 -9 -15 -37 -12 -75 7
-18 9 -48 16 -66 15 -18 -1 -36 3 -39 8 -3 6 -15 10 -25 10 -23 0 -38 -39 -19
-51 24 -14 0 -23 -26 -9 -22 12 -31 11 -73 -8 -26 -11 -57 -24 -70 -27 -12 -4
-42 -26 -65 -49 -23 -23 -51 -48 -62 -54 -38 -21 -2 -32 108 -34 59 0 107 -4
107 -8 0 -4 -75 -10 -167 -14 -93 -4 -184 -8 -203 -10 -19 -2 -102 -5 -185 -7
l-150 -4 1 37 c1 33 11 61 59 173 26 61 65 140 75 155 26 38 80 171 80 196 0
16 9 66 20 112 11 46 20 85 20 86 0 2 -9 6 -21 9 -19 5 -20 10 -13 49 4 24 7
53 6 66 -3 38 35 98 95 151 32 28 78 77 103 108 74 93 150 171 254 262 150
131 183 151 276 164 44 7 180 2 180 -6z m-227 -1344 c11 -10 -24 -43 -45 -43
-22 0 -23 8 -1 32 17 19 35 23 46 11z m247 -243 c12 -8 11 -10 -7 -10 -11 0
-83 -16 -159 -35 -75 -19 -157 -37 -181 -41 -25 -4 -58 -17 -74 -31 -35 -29
-38 -19 -6 20 25 32 112 67 167 67 19 0 53 5 75 11 22 6 67 14 100 18 33 5 62
9 65 9 3 1 12 -3 20 -8z m-1765 -205 c33 -13 72 -26 87 -30 14 -4 56 -36 93
-73 51 -50 77 -86 105 -147 35 -74 38 -89 45 -200 4 -66 11 -149 16 -185 6
-36 13 -126 16 -200 9 -247 12 -287 28 -345 29 -113 30 -148 4 -178 -20 -22
-36 -28 -86 -33 -53 -6 -65 -4 -91 15 -37 26 -77 107 -87 176 -9 61 -13 69
-70 136 -81 94 -148 204 -208 339 -13 30 -30 69 -37 85 -71 157 -83 211 -84
365 -1 142 0 146 29 203 55 109 106 124 240 72z m1020 3 c14 -6 25 -15 25 -20
0 -10 -101 -10 -155 1 l-40 8 40 7 c22 4 47 9 55 11 31 6 50 5 75 -7z m1772
-5 c20 -9 40 -29 48 -47 34 -78 96 -251 126 -351 18 -60 42 -132 54 -160 12
-27 29 -70 39 -95 9 -25 29 -67 44 -95 21 -39 32 -50 52 -50 41 0 36 34 -15
95 -40 48 -56 80 -40 80 3 0 29 -13 58 -29 28 -16 84 -36 122 -45 144 -31 226
-46 253 -46 53 0 288 56 316 76 11 8 26 14 33 14 7 0 40 19 74 41 33 23 63 39
66 36 9 -10 -47 -98 -104 -163 -48 -55 -83 -78 -147 -98 -25 -9 -13 -19 37
-31 54 -14 58 -38 23 -135 -14 -39 -26 -82 -26 -95 0 -14 -12 -34 -30 -48 -20
-18 -33 -40 -40 -74 -6 -26 -12 -58 -15 -71 -3 -12 -28 -47 -55 -77 -28 -30
-50 -61 -50 -69 0 -8 -12 -21 -26 -31 -21 -14 -25 -22 -20 -46 3 -16 1 -29 -4
-29 -6 0 -10 7 -10 15 0 10 -16 16 -51 21 -33 4 -62 16 -82 33 -24 20 -41 26
-75 25 -31 -1 -39 2 -28 8 20 11 21 32 2 47 -13 11 -17 33 -35 214 -5 48 -14
94 -21 102 -6 8 -32 17 -56 21 l-45 6 -87 -84 c-81 -79 -93 -87 -170 -112
l-83 -27 -75 47 c-41 26 -92 53 -112 60 -57 20 -159 17 -211 -6 -24 -11 -56
-20 -72 -20 -53 0 -27 -54 41 -85 35 -16 49 -17 100 -7 71 13 96 7 104 -23 5
-18 14 -25 39 -27 25 -2 33 -8 35 -27 5 -30 -20 -51 -59 -51 -22 0 -31 -8 -46
-40 -16 -36 -21 -40 -45 -36 -20 4 -28 1 -28 -9 0 -9 -9 -15 -23 -15 -15 0
-29 -9 -37 -26 -8 -14 -27 -32 -42 -40 -18 -10 -31 -26 -35 -44 -6 -34 -32
-40 -40 -10 -9 36 -28 15 -28 -31 0 -24 -3 -49 -8 -56 -11 -17 -63 -41 -104
-49 l-34 -6 14 33 c8 21 22 35 38 39 30 7 37 39 13 57 -27 19 -32 16 -36 -19
-3 -29 -7 -33 -33 -33 -17 -1 -35 -4 -42 -8 -8 -5 -15 1 -19 18 -6 24 -44 37
-44 15 0 -5 -7 -10 -16 -10 -23 0 -85 -50 -95 -77 -5 -15 -20 -26 -40 -30 -42
-8 -56 -37 -55 -113 1 -60 3 -65 24 -68 13 -2 40 6 60 18 56 34 108 50 212 65
52 8 145 24 205 35 90 18 130 20 220 15 61 -4 196 -10 302 -13 213 -8 216 -9
226 -74 7 -49 -18 -82 -75 -96 -24 -6 -108 -16 -188 -22 -158 -11 -293 -38
-318 -63 -13 -13 -13 -21 -4 -42 18 -40 70 -56 191 -59 58 -2 143 -8 189 -15
138 -20 297 -3 344 37 21 18 73 10 100 -15 22 -20 23 -36 3 -53 -9 -8 -15 -30
-15 -58 0 -84 -76 -161 -148 -147 -25 5 -39 2 -53 -11 -17 -15 -21 -16 -36 -2
-28 24 -42 12 -36 -30 3 -20 10 -43 16 -49 7 -10 4 -13 -12 -13 -11 0 -21 4
-21 10 0 5 -9 14 -21 21 -17 9 -24 7 -40 -10 -10 -11 -34 -23 -53 -26 -22 -5
-37 -15 -44 -30 -9 -19 -22 -24 -74 -31 -35 -4 -69 -6 -77 -5 -8 1 -22 -7 -30
-18 -11 -14 -36 -24 -75 -32 -52 -9 -62 -9 -72 5 -18 25 -35 19 -32 -11 4 -39
-23 -40 -66 -3 -25 22 -41 30 -55 25 -11 -3 -34 1 -52 11 -32 16 -33 16 -58
-15 -14 -17 -32 -31 -40 -31 -17 0 -52 37 -67 70 l-12 25 -10 -26 c-12 -31
-37 -43 -62 -29 -12 7 -28 7 -45 0 -23 -9 -28 -6 -46 25 -21 35 -28 39 -62 35
-10 -1 -24 3 -30 8 -7 6 -23 12 -37 14 -17 2 -26 10 -28 25 -3 17 -11 23 -40
25 -31 3 -38 8 -46 33 -6 17 -11 32 -13 34 -1 2 -15 -1 -32 -7 -25 -9 -34 -7
-55 9 -16 13 -33 18 -45 14 -21 -6 -27 12 -33 95 -3 30 -6 35 -26 32 -17 -1
-25 4 -29 17 -7 26 -47 53 -67 45 -12 -5 -16 0 -16 18 0 24 -59 98 -61 78 -1
-6 -2 -16 -3 -22 -2 -21 -43 -21 -58 0 -7 11 -23 22 -35 26 -15 5 -26 20 -33
48 -11 39 -12 40 -32 22 -19 -18 -20 -18 -33 -1 -6 9 -19 17 -27 17 -21 0 -58
38 -58 60 0 22 -22 39 -28 22 -7 -22 -21 -12 -33 23 -7 19 -21 37 -30 40 -18
6 -59 75 -59 99 0 7 7 19 16 26 17 15 15 61 -2 67 -7 2 -14 -8 -18 -22 -6 -25
-29 -33 -52 -17 -19 13 -23 52 -7 83 18 36 3 63 -29 53 -17 -5 -19 -1 -17 33
3 48 -6 65 -34 61 -20 -3 -22 1 -18 47 3 42 1 48 -11 37 -20 -16 -28 -5 -28
41 0 21 -6 53 -14 70 -8 18 -17 49 -21 71 -4 27 -12 40 -26 43 -19 5 -41 45
-98 177 -12 27 -21 66 -21 87 0 20 -6 44 -14 51 -7 8 -16 29 -19 48 -24 155
-28 207 -23 315 4 66 9 174 12 240 7 143 28 218 62 223 24 4 116 -50 212 -123
30 -23 78 -54 105 -69 53 -30 135 -103 135 -121 0 -7 21 -38 48 -71 26 -33 57
-73 69 -89 12 -17 25 -27 28 -23 4 4 -6 24 -22 45 -16 21 -43 61 -60 88 -16
28 -53 81 -81 119 -81 107 -69 152 48 191 33 11 50 23 54 38 6 22 6 22 31 -6
13 -15 27 -44 30 -65 4 -20 12 -53 20 -72 7 -19 21 -64 30 -100 22 -84 42
-132 84 -203 44 -75 110 -148 152 -168 111 -54 212 -79 313 -79 117 0 334 27
360 45 11 8 29 15 40 15 19 0 57 10 119 33 39 14 100 86 162 192 94 159 110
206 170 492 9 41 109 56 172 26z m-1047 -1 c0 -13 -12 -22 -22 -16 -10 6 -1
24 13 24 5 0 9 -4 9 -8z m-126 -54 c5 -30 17 -52 41 -75 39 -37 82 -47 162
-41 64 6 86 25 127 112 l22 49 22 -28 c29 -36 28 -57 -4 -95 -19 -22 -24 -34
-16 -42 28 -28 -73 -117 -135 -118 -10 -1 -29 -7 -42 -14 -22 -12 -22 -13 -4
-18 22 -6 163 7 242 21 29 6 77 22 105 37 82 42 94 57 55 69 -31 10 -3 25 33
18 18 -4 35 0 46 10 9 8 37 21 62 28 27 7 56 24 72 43 19 22 30 28 38 20 14
-14 3 -42 -21 -55 -15 -8 -19 -21 -19 -67 0 -33 -6 -66 -14 -77 -21 -31 -30
-84 -16 -100 18 -21 30 -18 30 6 0 11 6 33 14 47 8 15 17 35 20 45 7 23 26 22
26 -3 0 -23 -35 -94 -56 -111 -8 -6 -14 -18 -14 -26 0 -8 -8 -13 -17 -11 -13
2 -19 -7 -24 -39 -15 -85 -81 -173 -161 -214 -70 -36 -129 -50 -268 -63 -267
-25 -385 7 -515 138 -91 92 -136 195 -143 322 -2 46 -2 94 2 108 5 22 10 24
44 19 20 -3 50 -12 66 -19 25 -12 30 -12 40 1 6 9 34 18 64 22 49 5 68 22 42
38 -29 18 1 74 55 103 27 14 31 9 39 -40z m901 1 c8 -37 -2 -119 -16 -119 -5
0 -9 34 -9 75 0 77 13 99 25 44z m1043 -61 c-6 -17 -36 -34 -45 -24 -4 4 1 14
11 22 24 17 39 18 34 2z m-243 -78 c3 -5 -3 -10 -14 -10 -12 0 -21 5 -21 10 0
6 6 10 14 10 8 0 18 -4 21 -10z m75 -31 c0 -12 -37 -12 -45 0 -3 5 3 11 12 13
21 5 33 0 33 -13z m500 -99 c11 -11 22 -32 25 -47 4 -16 11 -38 16 -51 31 -77
-9 -142 -121 -196 -42 -20 -82 -36 -90 -36 -8 0 -35 -8 -60 -17 -112 -40 -342
-7 -459 66 -37 24 -101 117 -101 149 0 15 -5 33 -12 40 -14 14 -16 13 57 48
60 29 60 29 225 25 91 -1 197 -3 235 -4 72 -1 193 19 210 34 16 15 54 10 75
-11z m-1438 -1335 c4 -19 1 -25 -13 -25 -12 0 -19 7 -19 18 0 38 26 43 32 7z
m438 -3 c0 -5 -9 -18 -20 -30 -26 -27 -70 -28 -101 -2 l-24 19 40 1 c22 0 47
5 55 10 18 12 50 13 50 2z"/>
<path d="M2854 4998 l-27 -33 6 -125 c6 -118 40 -280 59 -280 7 0 28 65 28 89
0 7 12 44 27 82 30 78 34 80 115 49 57 -22 113 -26 123 -10 10 16 -58 112
-112 160 -59 52 -140 100 -170 100 -12 0 -33 -14 -49 -32z"/>
<path d="M3177 4690 c-14 -11 -29 -20 -34 -20 -19 0 -96 -60 -119 -93 -32 -48
-33 -122 -2 -162 20 -26 25 -27 83 -22 98 9 109 17 151 101 l37 75 -23 53
c-22 52 -46 88 -60 88 -4 0 -19 -9 -33 -20z"/>
<path d="M3279 4253 c-14 -37 -5 -53 31 -53 35 0 34 -2 15 44 -18 43 -32 46
-46 9z"/>
<path d="M3060 4210 c0 -13 63 -80 75 -80 4 0 20 -11 37 -25 36 -30 48 -31 48
-5 0 12 -12 26 -32 36 -18 9 -42 24 -53 33 -36 31 -75 52 -75 41z"/>
<path d="M3817 3724 c-9 -10 4 -34 19 -34 8 0 14 9 14 20 0 19 -19 27 -33 14z"/>
<path d="M4022 3580 c0 -19 2 -27 5 -17 2 9 2 25 0 35 -3 9 -5 1 -5 -18z"/>
<path d="M4470 4873 c1 -25 72 -76 100 -71 17 2 12 9 -26 41 -44 34 -74 47
-74 30z"/>
<path d="M4610 4791 c0 -5 21 -12 46 -16 49 -7 74 0 30 10 -14 3 -37 7 -51 10
-14 3 -25 1 -25 -4z"/>
</g>
</svg>
